<?xml version="1.0" encoding="UTF-8"?>
<svg width="31px" height="31px" viewBox="0 0 31 31" version="1.1" xmlns="http://www.w3.org/2000/svg" xmlns:xlink="http://www.w3.org/1999/xlink">
    <title>CABBCDBF-29BB-49DB-86AE-3FE0200AB63C</title>
    <g id="Main" stroke="none" stroke-width="1" fill="none" fill-rule="evenodd">
        <g id="Main-designed" transform="translate(-304.000000, -4408.000000)" fill="#FFFFFF" fill-rule="nonzero">
            <g id="Footer" transform="translate(0.000000, 4203.000000)">
                <path d="M332.286401,205 L306.256312,205 C305.010427,205 304,205.986325 304,207.201928 L304,233.53669 C304,234.751675 305.010427,235.738 306.256312,235.738 L332.286401,235.738 C333.534139,235.738 334.544567,234.751057 334.544567,233.53669 L334.544567,207.201928 C334.544567,205.985707 333.533521,205 332.286401,205 Z M313.258233,230.731596 L308.644875,230.731596 L308.644875,216.851972 L313.258233,216.851972 L313.258233,230.731596 Z M310.951863,214.955953 L310.920963,214.955953 C309.373495,214.955953 308.372338,213.889906 308.372338,212.558119 C308.372338,211.196669 309.404395,210.160286 310.982145,210.160286 C312.560513,210.160286 313.531388,211.196669 313.562288,212.558119 C313.562288,213.889906 312.559895,214.955953 310.951863,214.955953 Z M329.894129,230.731596 L325.280772,230.731596 L325.280772,223.304492 C325.280772,221.439373 324.613334,220.166297 322.94412,220.166297 C321.669808,220.166297 320.910906,221.024696 320.576569,221.85405 C320.454823,222.150071 320.425159,222.56413 320.425159,222.979425 L320.425159,230.730978 L315.811802,230.730978 C315.811802,230.730978 315.872366,218.15224 315.811802,216.851354 L320.425159,216.851354 L320.425159,218.81597 C321.038213,217.870433 322.134542,216.523815 324.58367,216.523815 C327.618659,216.523815 329.894747,218.508207 329.894747,222.771777 L329.894747,230.731596 L329.894129,230.731596 Z" id="Shape"></path>
            </g>
        </g>
    </g>
</svg>