<?xml version="1.0" encoding="UTF-8"?>
<svg width="51px" height="37px" viewBox="0 0 51 37" version="1.1" xmlns="http://www.w3.org/2000/svg" xmlns:xlink="http://www.w3.org/1999/xlink">
    <title>1483FA3E-491A-4AD8-B2FA-F29F257FEDE7</title>
    <defs>
        <polygon id="path-1" points="0 0 50.9756508 0 50.9756508 37 0 37"></polygon>
    </defs>
    <g id="Main" stroke="none" stroke-width="1" fill="none" fill-rule="evenodd">
        <g id="What-we-do-design" transform="translate(-134.000000, -2045.000000)">
            <g id="Group-3-Copy-2" transform="translate(134.000000, 2045.000000)">
                <mask id="mask-2" fill="white">
                    <use xlink:href="#path-1"></use>
                </mask>
                <g id="Clip-2"></g>
                <path d="M44.0950119,17.7311688 L39.3463183,17.7311688 L37.35962,14.3675325 C37.2142518,14.1272727 36.9719715,13.9831169 36.6812352,13.9831169 C36.3904988,13.9831169 36.1482185,14.0792208 36.0028504,14.3194805 L34.3553444,16.7220779 L31.6902613,8.12077922 C31.5933492,7.78441558 31.2541568,7.59220779 30.9149644,7.54415584 C30.575772,7.54415584 30.2365796,7.78441558 30.1396675,8.12077922 L25.6332542,23.5454545 L20.7391924,11.1480519 C20.6422803,10.8597403 20.3515439,10.6675325 20.0608076,10.6675325 C19.7216152,10.6675325 19.4793349,10.8116883 19.3339667,11.1 L15.5059382,18.5480519 L7.80142518,18.5480519 C5.8631829,15.0402597 5.33016627,11.6766234 6.2023753,8.64935065 C7.21995249,5.23766234 10.5634204,1.58571429 15.6028504,1.58571429 C16.95962,1.58571429 18.3648456,1.87402597 19.7700713,2.35454545 C23.3073634,3.65194805 25.1971496,5.14155844 25.2456057,5.14155844 C25.536342,5.38181818 25.9239905,5.38181818 26.2147268,5.14155844 C26.2147268,5.14155844 28.1045131,3.65194805 31.6902613,2.35454545 C33.0954869,1.82597403 34.5007126,1.58571429 35.8574822,1.58571429 C40.8484561,1.58571429 44.24038,5.23766234 45.2579572,8.64935065 C46.0817102,11.4363636 45.6456057,14.5116883 44.0950119,17.7311688 M50.2136793,17.7311688 L45.7909739,17.7311688 C47.583848,13.6948052 47.3900238,10.4272727 46.711639,8.21688312 C45.5486936,4.27662338 41.623753,0 35.8090261,0 C34.2584323,0 32.7078385,0.288311688 31.1087886,0.864935065 C28.3467933,1.87402597 26.5054632,2.97922078 25.6817102,3.55584416 C24.8579572,2.97922078 23.0650831,1.87402597 20.2546318,0.864935065 C18.6555819,0.288311688 17.0565321,0 15.5543943,0 C9.73966746,0 5.81472684,4.27662338 4.65178147,8.21688312 C3.97339667,10.5714286 3.73111639,14.1272727 6.00855107,18.5961039 L0.801584323,18.5961039 C0.372142518,18.5961039 0.00411876485,18.9311461 -3.91366763e-05,19.3568864 C-0.00423990499,19.7931981 0.336527316,20.1337662 0.775296912,20.1337662 L6.92921615,20.1337662 C7.17149644,20.5662338 7.46223278,20.9987013 7.80142518,21.4311688 C12.8408551,28.638961 23.791924,36.4714286 25.7786223,36.9519481 L25.7786223,37 C25.7786223,37 25.8270784,37 25.8755344,36.9519481 L26.0209026,36.9519481 L26.0209026,36.9038961 C26.9196413,36.4709481 30.2953325,34.3772045 34.0923492,31.3182175 C34.433601,31.0431201 34.482057,30.5406169 34.1947126,30.2103799 C34.1849002,30.1990877 34.1749667,30.1876753 34.1651544,30.1765032 C33.8894394,29.8606818 33.4087553,29.8223604 33.0813135,30.0852045 C29.739057,32.7663831 26.768943,34.656026 25.7301663,35.3181818 C23.6465558,34.0207792 14.2460808,27.9662338 9.06128266,20.5662338 L8.77054632,20.1337662 L15.8935867,20.1337662 C16.184323,20.1337662 16.4750594,19.9896104 16.6204276,19.7012987 L19.8669834,13.3584416 L24.9548694,26.2844156 C25.0517815,26.5727273 25.3909739,26.7649351 25.6817102,26.7649351 L25.7301663,26.7649351 C26.0693587,26.7649351 26.360095,26.5246753 26.4570071,26.1883117 L30.9149644,11.0519481 L33.2893112,18.6922078 C33.3862233,18.9805195 33.6285036,19.1727273 33.9192399,19.2207792 C34.2099762,19.2688312 34.5007126,19.1246753 34.6945368,18.8844156 L36.584323,16.1454545 L38.1833729,18.8363636 C38.3287411,19.0766234 38.5710214,19.2207792 38.8617577,19.2207792 L43.2228029,19.2207792 C42.9320665,19.7012987 42.6413302,20.1337662 42.3505938,20.5662338 C40.4104133,23.3797955 37.854962,25.986013 35.3161069,28.2116591 C34.9938741,28.4942045 34.9638314,28.9790487 35.2439074,29.3027987 C35.247905,29.3074838 35.2520238,29.3121688 35.2560214,29.3168539 C35.5425178,29.6487727 36.0458551,29.686974 36.3754774,29.3972208 C39.0529169,27.0438766 41.7373824,24.2977078 43.7558195,21.3831169 C44.2888361,20.6623377 44.7249406,19.9415584 45.1125891,19.2207792 L50.2004751,19.2207792 C50.6270095,19.2207792 50.9608717,18.8990714 50.9757016,18.4802987 C50.9895819,18.0658506 50.6318551,17.7311688 50.2136793,17.7311688" id="Fill-1" fill="#025FFF" mask="url(#mask-2)"></path>
            </g>
        </g>
    </g>
</svg>