<?xml version="1.0" encoding="UTF-8"?>
<svg width="52px" height="52px" viewBox="0 0 52 52" version="1.1" xmlns="http://www.w3.org/2000/svg" xmlns:xlink="http://www.w3.org/1999/xlink">
    <title>E9765BEB-7B07-40C6-B2D4-A427028C9E66</title>
    <defs>
        <polygon id="path-1" points="0.0849766865 0.112198982 35.7366295 0.112198982 35.7366295 9.17266187 0.0849766865 9.17266187"></polygon>
        <polygon id="path-3" points="0.11671295 0.000244604317 39.7482014 0.000244604317 39.7482014 44.3548345 0.11671295 44.3548345"></polygon>
    </defs>
    <g id="Main" stroke="none" stroke-width="1" fill="none" fill-rule="evenodd">
        <g id="What-we-do-design" transform="translate(-766.000000, -2037.000000)">
            <g id="Group-11-Copy-2" transform="translate(766.000000, 2037.000000)">
                <path d="M9.11640288,5.60436187 L9.10429496,5.60436187 C7.25961151,5.63139065 5.75945324,7.15478633 5.75945324,9.0003259 L5.75945324,13.8532755 L0.750690647,13.8532755 C0.336086331,13.8532755 0,14.1893619 0,14.6039662 C0,15.0185705 0.336086331,15.3546568 0.750690647,15.3546568 L5.75957554,15.3546568 L5.75957554,19.3013475 L0.750690647,19.3013475 C0.336086331,19.3013475 0,19.6374338 0,20.0519158 C0,20.4665201 0.336086331,20.8026065 0.750690647,20.8026065 L5.75957554,20.8026065 L5.75957554,24.7492971 L0.750690647,24.7492971 C0.336086331,24.7494194 0,25.0853835 0,25.4999878 C0,25.9145921 0.336086331,26.2506784 0.750690647,26.2506784 L5.75957554,26.2506784 L5.75957554,30.1972468 L0.750690647,30.1972468 C0.336086331,30.1972468 0,30.5334554 0,30.9479374 C0,31.3625417 0.336086331,31.6986281 0.750690647,31.6986281 L5.75957554,31.6986281 L5.75957554,35.6451964 L0.750690647,35.6451964 C0.336086331,35.6451964 0,35.9812827 0,36.3958871 C0,36.8106137 0.336086331,37.1465777 0.750690647,37.1465777 L5.75957554,37.1465777 L5.75957554,39.7135777 C5.75957554,40.1279374 6.09578417,40.4642683 6.51014388,40.4642683 C6.9245036,40.4642683 7.26083453,40.1279374 7.26083453,39.7135777 L7.26083453,9.0004482 C7.26083453,7.97054173 8.0975036,7.12078633 9.12753237,7.10476475 C9.54189209,7.09877194 9.87308633,6.75840504 9.86623741,6.34306691 C9.8601223,5.93274317 9.5258705,5.60436187 9.11640288,5.60436187" id="Fill-1" fill="#025FFF"></path>
                <g id="Group-5" transform="translate(5.870504, 41.827094)">
                    <mask id="mask-2" fill="white">
                        <use xlink:href="#path-1"></use>
                    </mask>
                    <g id="Clip-4"></g>
                    <path d="M34.9859388,1.75680935 L3.28595324,1.75680935 C2.51226978,1.75680935 1.82370863,1.29450719 1.53042806,0.578794964 C1.37326978,0.194521583 0.935917266,0.0113129496 0.551521583,0.168471223 C0.167248201,0.325629496 -0.0158381295,0.763960432 0.141197842,1.1472554 C0.665629496,2.42947122 1.89990288,3.25806835 3.28595324,3.25806835 L7.98284532,3.25806835 L7.98284532,8.42203237 C7.98284532,8.83663669 8.31893165,9.17272302 8.73353597,9.17272302 C9.14801799,9.17272302 9.48410432,8.83663669 9.48410432,8.42203237 L9.48410432,3.25806835 L13.4309173,3.25806835 L13.4309173,8.42203237 C13.4309173,8.83663669 13.7670036,9.17272302 14.1816079,9.17272302 C14.5960899,9.17272302 14.9321763,8.83663669 14.9321763,8.42203237 L14.9321763,3.25806835 L18.8788669,3.25806835 L18.8788669,8.42203237 C18.8788669,8.83663669 19.2148309,9.17272302 19.6294353,9.17272302 C20.0440396,9.17272302 20.3801259,8.83663669 20.3801259,8.42203237 L20.3801259,3.25806835 L24.3266942,3.25806835 L24.3266942,8.42203237 C24.3266942,8.83663669 24.6627806,9.17272302 25.0772626,9.17272302 C25.4919892,9.17272302 25.8279532,8.83663669 25.8279532,8.42203237 L25.8279532,3.25806835 L29.7747662,3.25806835 L29.7747662,8.42203237 C29.7747662,8.83663669 30.1108525,9.17272302 30.5253345,9.17272302 C30.9399388,9.17272302 31.2760252,8.83663669 31.2760252,8.42203237 L31.2760252,3.25806835 L34.9859388,3.25806835 C35.4004209,3.25806835 35.7366295,2.92173741 35.7366295,2.5075 C35.7366295,2.09216187 35.4004209,1.75680935 34.9859388,1.75680935" id="Fill-3" fill="#025FFF" mask="url(#mask-2)"></path>
                </g>
                <path d="M36.578741,31.6760388 L26.3284748,31.6760388 L26.3284748,26.3287439 L28.1242374,26.3287439 C28.4696187,27.9280892 29.8957842,29.1303194 31.5973741,29.1303194 C33.5560432,29.1303194 35.1493957,27.5367223 35.1493957,25.5780532 C35.1493957,23.8765856 33.9474101,22.4502978 32.3479424,22.1050388 L32.3476978,22.1050388 L32.3476978,14.2651036 L35.6809209,14.2651036 C36.1763669,14.2651036 36.578741,14.6673554 36.578741,15.1628014 L36.578741,31.6760388 Z M36.578741,35.5258662 C36.578741,36.0203338 36.1764892,36.423564 35.6810432,36.423564 L26.3284748,36.423564 L26.3284748,33.1772978 L36.578741,33.1772978 L36.578741,35.5258662 Z M24.8272158,36.423564 L19.7909353,36.423564 L19.7909353,33.4689885 C21.2492662,33.3029022 22.3852086,32.0608014 22.3852086,30.5584417 C22.3852086,28.9429525 21.0710719,27.6288158 19.455705,27.6288158 C17.8391151,27.6288158 16.5249784,28.9429525 16.5249784,30.5584417 C16.5249784,31.7595712 17.2518201,32.7954705 18.2896763,33.2468878 L18.2896763,36.423564 L15.3189568,36.423564 C14.8235108,36.423564 14.421259,36.0203338 14.421259,35.5258662 L14.421259,18.8570604 L19.0481942,18.8570604 C19.0546763,18.8674561 19.4581511,20.3980676 21.0910072,20.8999957 L21.0910072,25.5780532 C21.0910072,25.9924129 21.4273381,26.3287439 21.8416978,26.3287439 L24.8272158,26.3287439 L24.8272158,36.423564 Z M18.7560144,31.8036 C18.3206187,31.5593626 18.026482,31.092046 18.026482,30.5584417 C18.026482,29.7706935 18.6679568,29.1301971 19.455705,29.1301971 C20.2434532,29.1301971 20.8839496,29.7706935 20.8839496,30.5584417 C20.8838273,31.6499885 19.7033669,32.3390388 18.7560144,31.8036 L18.7560144,31.8036 Z M21.9978777,19.5347367 C21.1298993,19.5347367 20.4134532,18.8286863 20.4134532,17.9503122 C20.4134532,17.077564 21.1241511,16.3669885 21.9978777,16.3669885 C22.8717266,16.3669885 23.5821799,17.077564 23.5821799,17.9503122 C23.5821799,18.8317439 22.8646331,19.5347367 21.9978777,19.5347367 L21.9978777,19.5347367 Z M31.5973741,23.5261899 C32.7283022,23.5261899 33.6481367,24.4470029 33.6481367,25.5780532 C33.6481367,26.7092259 32.7284245,27.6289381 31.5973741,27.6289381 C30.4582518,27.6289381 29.5455108,26.7000532 29.5455108,25.5780532 C29.5455108,24.4539741 30.4608201,23.5261899 31.5973741,23.5261899 L31.5973741,23.5261899 Z M14.4211367,15.1628014 C14.4211367,14.6673554 14.8233885,14.2651036 15.3189568,14.2651036 L30.8464388,14.2651036 L30.8464388,22.1050388 C29.4893741,22.3983194 28.417518,23.4702978 28.1242374,24.8273626 L22.5923885,24.8273626 L22.5923885,20.9780245 C24.0106043,20.7008878 25.0835612,19.448636 25.0835612,17.9503122 C25.0835612,16.249823 23.699223,14.8656072 21.9978777,14.8656072 C20.499554,14.8656072 19.2475468,15.938564 18.9701655,17.3558014 L14.4211367,17.3558014 L14.4211367,15.1628014 Z M35.6809209,12.7637223 L15.3189568,12.7637223 C13.9958921,12.7637223 12.92,13.8397367 12.92,15.1628014 L12.92,35.5258662 C12.92,36.8490532 13.9958921,37.9249453 15.3189568,37.9249453 L35.6810432,37.9249453 C37.0042302,37.9249453 38.08,36.8489309 38.08,35.5258662 L38.08,15.1628014 C38.08,13.8396144 37.0042302,12.7637223 35.6809209,12.7637223 L35.6809209,12.7637223 Z" id="Fill-6" fill="#025FFF"></path>
                <g id="Group-10" transform="translate(11.251799, -0.000245)">
                    <mask id="mask-4" fill="white">
                        <use xlink:href="#path-3"></use>
                    </mask>
                    <g id="Clip-9"></g>
                    <path d="M38.9974252,20.8029856 C39.4120295,20.8029856 39.7482381,20.4668993 39.7482381,20.052295 C39.7482381,19.6378129 39.4120295,19.3017266 38.9974252,19.3017266 L33.9886626,19.3017266 L33.9886626,15.355036 L38.9974252,15.355036 C39.4120295,15.355036 39.7482381,15.0189496 39.7482381,14.6043453 C39.7482381,14.189741 39.4120295,13.8536547 38.9974252,13.8536547 L33.9886626,13.8536547 L33.9886626,9.00070504 C33.9886626,7.12801439 32.4652669,5.60376259 30.5917201,5.60376259 L25.8947058,5.60376259 L25.8947058,0.750935252 C25.8947058,0.336330935 25.5586194,0.000244604317 25.1441374,0.000244604317 C24.7295331,0.000244604317 24.3934468,0.336330935 24.3934468,0.750935252 L24.3934468,5.60364029 L20.4466338,5.60364029 L20.4466338,0.750935252 C20.4466338,0.336330935 20.1105475,0.000244604317 19.6960655,0.000244604317 C19.2814612,0.000244604317 18.9453748,0.336330935 18.9453748,0.750935252 L18.9453748,5.60364029 L14.9988065,5.60364029 L14.9988065,0.750935252 C14.9988065,0.336330935 14.6627201,0.000244604317 14.2482381,0.000244604317 C13.8335115,0.000244604317 13.4975475,0.336330935 13.4975475,0.750935252 L13.4975475,5.60364029 L9.55085683,5.60364029 L9.55085683,0.750935252 C9.55085683,0.336330935 9.2147705,0.000244604317 8.80028849,0.000244604317 C8.38568417,0.000244604317 8.04959784,0.336330935 8.04959784,0.750935252 L8.04959784,5.60364029 L4.10290719,5.60364029 L4.10290719,0.750935252 C4.10290719,0.336330935 3.76682086,0.000244604317 3.35221655,0.000244604317 C2.93761223,0.000244604317 2.6015259,0.336330935 2.6015259,0.750935252 L2.6015259,5.60364029 L0.867281295,5.60364029 C0.451943165,5.60364029 0.11671295,5.93984892 0.11671295,6.35420863 C0.11671295,6.76869065 0.451943165,7.10489928 0.867281295,7.10489928 L30.5917201,7.10489928 C31.6375259,7.10489928 32.4874036,7.9557554 32.4874036,9.00058273 L32.4874036,41.6886475 C32.4874036,42.2119784 32.2790007,42.6994748 31.899864,43.0607554 C31.5996122,43.3470647 31.5875043,43.8224532 31.8738137,44.1217266 C32.0219216,44.2768058 32.2190727,44.3548345 32.4172022,44.3548345 C32.6034683,44.3548345 32.7896122,44.2858561 32.9357633,44.1476547 C33.6142957,43.5000647 33.9886626,42.6263381 33.9886626,41.6886475 L33.9886626,37.1468345 L38.9975475,37.1468345 C39.4121518,37.1468345 39.7482381,36.8107482 39.7482381,36.3961439 C39.7482381,35.9815396 39.4121518,35.6454532 38.9975475,35.6454532 L33.9886626,35.6454532 L33.9886626,31.6988849 L38.9975475,31.6988849 C39.4121518,31.6988849 39.7482381,31.3627986 39.7482381,30.9481942 C39.7482381,30.5337122 39.4121518,30.1975036 38.9975475,30.1975036 L33.9886626,30.1975036 L33.9886626,26.2509353 L38.9975475,26.2509353 C39.4121518,26.2509353 39.7482381,25.9148489 39.7482381,25.5002446 C39.7482381,25.0856403 39.4121518,24.7496763 38.9975475,24.7496763 L33.9886626,24.7496763 L33.9886626,20.8029856 L38.9974252,20.8029856 Z" id="Fill-8" fill="#025FFF" mask="url(#mask-4)"></path>
                </g>
            </g>
        </g>
    </g>
</svg>