<?xml version="1.0" encoding="UTF-8"?>
<svg width="18px" height="18px" viewBox="0 0 18 18" version="1.1" xmlns="http://www.w3.org/2000/svg" xmlns:xlink="http://www.w3.org/1999/xlink">
    <g id="Main" stroke="none" stroke-width="1" fill="none" fill-rule="evenodd">
        <g id="Highland-main-mobile" transform="translate(-155.000000, -2743.000000)" fill="#B1B1B3">
            <g id="Group-5-Copy-2" transform="translate(128.000000, 2633.000000)">
                <g id="Group-8" transform="translate(27.000000, 110.000000)">
                    <path d="M11.6665435,15.9382174 C12.3638478,15.0020217 13.1535,13.6631739 13.6191522,11.9778261 C14.5987826,11.8907609 15.3739565,11.7898043 15.9223696,11.7066522 C15.1616739,13.6451739 13.6105435,15.1884783 11.6665435,15.9382174 M2.07567391,11.7019565 C2.62682609,11.7841304 3.4068913,11.8846957 4.37908696,11.9721522 C4.84473913,13.6600435 5.63536957,15.0008478 6.33326087,15.9382174 C4.3878913,15.1878913 2.83578261,13.6426304 2.07567391,11.7019565 M6.37845652,2.04378261 C5.67919565,2.98878261 4.87467391,4.34152174 4.39630435,6.021 C3.40904348,6.10845652 2.62858696,6.21019565 2.07743478,6.29354348 C2.84380435,4.33995652 4.41313043,2.78706522 6.37845652,2.04378261 M15.9243261,6.29823913 C15.3702391,6.21567391 14.5846957,6.11432609 13.6052609,6.02667391 C13.127087,4.34465217 12.3213913,2.98995652 11.6215435,2.04378261 C13.5882391,2.78745652 15.1585435,4.34230435 15.9243261,6.29823913 M13.8772174,7.23384783 C15.0245217,7.34673913 15.8570217,7.47313043 16.2911739,7.54630435 C16.3846957,8.01665217 16.4347826,8.50245652 16.4347826,9 C16.4347826,9.49832609 16.3846957,9.9851087 16.290587,10.4564348 C15.8628913,10.5307826 15.039587,10.6583478 13.8823043,10.7716304 C13.9723043,10.2112826 14.0245435,9.62080435 14.0245435,9 C14.0245435,8.38369565 13.9705435,7.79458696 13.8772174,7.23384783 M9.58695652,10.9970217 L9.58695652,7.00336957 C10.7254565,7.01628261 11.7585,7.0653913 12.6614348,7.13054348 C12.7798043,7.71926087 12.8506304,8.34319565 12.8506304,9 C12.8506304,9.66130435 12.7823478,10.2860217 12.668087,10.8735652 C11.7708261,10.9371522 10.7381739,10.9846957 9.58695652,10.9970217 M8.41304348,1.59045652 L8.41304348,5.82926087 C7.40113043,5.83963043 6.48078261,5.87602174 5.66080435,5.9265 C6.40936957,3.69097826 7.76993478,2.13769565 8.29134783,1.59965217 C8.33165217,1.59593478 8.37254348,1.59358696 8.41304348,1.59045652 M9.70982609,1.59984783 C10.232413,2.13671739 11.5955217,3.68765217 12.342913,5.93041304 C11.5164783,5.87817391 10.5933913,5.84021739 9.58695652,5.82945652 L9.58695652,1.59045652 C9.62784783,1.59378261 9.66913043,1.59593478 9.70982609,1.59984783 M5.14936957,9 C5.14936957,8.34202174 5.22078261,7.71652174 5.34052174,7.12604348 C6.23563043,7.06284783 7.26554348,7.01569565 8.41304348,7.00336957 L8.41304348,10.9968261 C7.27141304,10.983913 6.23582609,10.9346087 5.33113043,10.8692609 C5.21726087,10.2828913 5.14936957,9.65973913 5.14936957,9 M1.56521739,9 C1.56521739,8.50167391 1.61530435,8.0148913 1.70921739,7.54395652 C2.13769565,7.46941304 2.96315217,7.34145652 4.12356522,7.22797826 C4.02965217,7.79047826 3.97545652,8.38154348 3.97545652,9 C3.97545652,9.61865217 4.0275,10.2071739 4.11671739,10.7657609 C2.97234783,10.6530652 2.14219565,10.5270652 1.70882609,10.4538913 C1.61530435,9.98354348 1.56521739,9.49754348 1.56521739,9 M8.28136957,16.3993696 C7.75663043,15.8763913 6.38256522,14.3493261 5.64084783,12.0686087 C6.4713913,12.1216304 7.39976087,12.1599783 8.41304348,12.1709348 L8.41304348,16.4093478 C8.36921739,16.4060217 8.325,16.4034783 8.28136957,16.3993696 M9.71843478,16.3993696 C9.67480435,16.4034783 9.63078261,16.4060217 9.58695652,16.4093478 L9.58695652,12.1709348 C10.6066957,12.1605652 11.5333043,12.1237826 12.3577826,12.0725217 C11.6154783,14.3516739 10.2421957,15.8775652 9.71843478,16.3993696 M9,0 C4.03747826,0 0,4.03728261 0,9 C0,13.9625217 4.03747826,18 9,18 C13.9625217,18 18,13.9625217 18,9 C18,4.03728261 13.9625217,0 9,0" id="web"></path>
                </g>
            </g>
        </g>
    </g>
</svg>