<?xml version="1.0" encoding="UTF-8"?>
<svg width="175px" height="37px" viewBox="0 0 175 37" version="1.1" xmlns="http://www.w3.org/2000/svg" xmlns:xlink="http://www.w3.org/1999/xlink">
    <title>A5D6E775-CECE-4811-AA8F-679681AF1B47</title>
    <g id="Main" stroke="none" stroke-width="1" fill="none" fill-rule="evenodd">
        <g id="About-us-design" transform="translate(-135.000000, -28.000000)" fill="#FFFFFF" fill-rule="nonzero">
            <g id="HL_logo_bird_white" transform="translate(135.000000, 28.000000)">
                <path d="M4.9,28.76 C4.19710414,28.7265304 3.52061056,29.0313242 3.08,29.58 C2.59907775,30.2355277 2.36210931,31.0383909 2.41,31.85 C2.35551093,32.6671454 2.58126455,33.4784475 3.05,34.15 C3.5129577,34.6809665 4.19702924,34.9656882 4.9,34.92 C5.23587968,34.9210284 5.57097504,34.8875188 5.9,34.82 C6.22666667,34.7533333 6.56,34.6633333 6.9,34.55 L6.9,35.71 C6.19451649,35.9632257 5.4495049,36.0885231 4.7,36.08 C3.68640885,36.1259597 2.70228342,35.7323096 2,35 C1.2886223,34.1136598 0.932197715,32.9944866 1,31.86 C0.983763491,31.0840393 1.14449606,30.3145749 1.47,29.61 C1.76537299,28.9919287 2.2390483,28.4764585 2.83,28.13 C3.47285083,27.7779753 4.19729542,27.6020387 4.93,27.62 C5.7372386,27.6137701 6.53488217,27.7952084 7.26,28.15 L6.78,29.27 C6.49234043,29.1343649 6.19482325,29.0207066 5.89,28.93 C5.57126073,28.8205748 5.23698446,28.7631738 4.9,28.76 Z" id="Path"></path>
                <path d="M18.45,36 L17.63,33.71 L14.48,33.71 L13.67,36 L12.25,36 L15.33,27.72 L16.8,27.72 L19.88,36 L18.45,36 Z M17.27,32.55 L16.5,30.31 C16.44,30.16 16.37,29.92 16.27,29.6 C16.17,29.28 16.1,29.04 16.06,28.89 C15.9438673,29.4028121 15.7935312,29.9072735 15.61,30.4 L14.87,32.55 L17.27,32.55 Z" id="Shape"></path>
                <path d="M31.05,30.2100053 C31.1012061,30.9718538 30.7898458,31.7131879 30.21,32.2100053 C29.509964,32.7103954 28.6587898,32.9540926 27.8,32.9 L26.94,32.9 L26.94,36 L25.59,36 L25.59,27.72 L28,27.72 C28.8194852,27.6586489 29.6351295,27.8810974 30.31,28.35 C30.8314821,28.8218898 31.1047858,29.5088423 31.05,30.2100053 Z M26.94,31.74 L27.66,31.74 C28.1917984,31.7812831 28.7232107,31.6554223 29.18,31.38 C29.5158943,31.1094137 29.6957094,30.6898451 29.66,30.26 C29.6945547,29.8582138 29.5347037,29.4641625 29.23,29.2 C28.8330102,28.9329519 28.3567316,28.8094723 27.88,28.85 L26.94,28.85 L26.94,31.74 Z" id="Shape"></path>
                <polygon id="Path" points="37.32 36 37.32 27.72 38.67 27.72 38.67 36"></polygon>
                <polygon id="Path" points="48.31 36 47 36 47 28.87 44.58 28.87 44.58 27.72 50.78 27.72 50.78 28.87 48.35 28.87"></polygon>
                <path d="M61.73,36 L60.91,33.71 L57.76,33.71 L57,36 L55.58,36 L58.66,27.72 L60.13,27.72 L63.17,36 L61.73,36 Z M60.55,32.55 L59.78,30.31 C59.73,30.16 59.65,29.92 59.55,29.6 C59.45,29.28 59.38,29.04 59.34,28.89 C59.2229353,29.4014909 59.0760172,29.9056873 58.9,30.4 L58.15,32.55 L60.55,32.55 Z" id="Shape"></path>
                <polygon id="Path" points="68.87 36 68.87 27.72 70.22 27.72 70.22 34.81 73.71 34.81 73.71 36"></polygon>
                <path d="M92.49,36 L91.66,33.71 L88.51,33.71 L87.71,36 L86.28,36 L89.37,27.72 L90.84,27.72 L93.92,36 L92.49,36 Z M91.31,32.55 L90.54,30.31 C90.48,30.16 90.4,29.92 90.3,29.6 C90.2,29.28 90.13,29.04 90.1,28.89 C89.9838673,29.4028121 89.8335312,29.9072735 89.65,30.4 L88.91,32.55 L91.31,32.55 Z" id="Shape"></path>
                <path d="M106.33,31.76 C106.411094,32.9129471 106.000588,34.0463803 105.2,34.88 C104.302279,35.6664383 103.131501,36.0686688 101.94,36 L99.63,36 L99.63,27.72 L102.18,27.72 C103.300686,27.6500841 104.402704,28.0318288 105.24,28.78 C106.004946,29.5766559 106.400397,30.6577993 106.33,31.76 L106.33,31.76 Z M104.91,31.76 C104.91,29.76 103.99,28.76 102.14,28.76 L101,28.76 L101,34.76 L102,34.76 C103.92,34.83 104.91,33.82 104.91,31.81 L104.91,31.76 Z" id="Shape"></path>
                <path d="M117.42,27.72 L118.82,27.72 L115.93,36 L114.51,36 L111.64,27.76 L113,27.76 L114.72,32.88 C114.81,33.13 114.91,33.44 115.01,33.88 C115.11,34.32 115.18,34.55 115.21,34.74 C115.26,34.45 115.33,34.12 115.43,33.74 C115.53,33.36 115.62,33.08 115.68,32.9 L117.42,27.72 Z" id="Path"></path>
                <polygon id="Path" points="124.53 36 124.53 27.72 125.88 27.72 125.88 36"></polygon>
                <path d="M137.43,33.72 C137.458785,34.3921056 137.160738,35.0366335 136.63,35.45 C135.992779,35.9027163 135.220375,36.1249146 134.44,36.08 C133.653254,36.1078899 132.870389,35.9574704 132.15,35.64 L132.15,34.37 C132.535728,34.5453335 132.937628,34.6826494 133.35,34.78 C133.734807,34.8839029 134.131419,34.9376809 134.53,34.94 C134.946787,34.9699517 135.361751,34.8609359 135.71,34.63 C135.960002,34.4327612 136.101119,34.1282461 136.09,33.81 C136.095956,33.5107202 135.967529,33.2245111 135.74,33.03 C135.302887,32.7026221 134.816931,32.4461453 134.3,32.27 C133.696446,32.0711802 133.150616,31.7278911 132.71,31.27 C132.397429,30.867187 132.231631,30.3697928 132.24,29.86 C132.21617,29.2304415 132.490372,28.6264551 132.98,28.23 C133.557031,27.8052463 134.264819,27.5964491 134.98,27.64 C135.791485,27.6434728 136.592806,27.8207863 137.33,28.16 L136.91,29.26 C136.280945,28.9740446 135.600776,28.8176058 134.91,28.8 C134.554132,28.7730419 134.200126,28.8721637 133.91,29.08 C133.684863,29.2624934 133.558878,29.5404025 133.57,29.83 C133.562571,30.0230065 133.611197,30.2140344 133.71,30.38 C133.820149,30.5564736 133.971041,30.703936 134.15,30.81 C134.506576,31.0228662 134.881388,31.2035789 135.27,31.35 C135.741422,31.5298046 136.188283,31.768354 136.6,32.06 C136.86274,32.2495275 137.075507,32.5000435 137.22,32.79 C137.355046,33.0816387 137.426624,33.3986294 137.43,33.72 L137.43,33.72 Z" id="Path"></path>
                <path d="M151,31.83 C151.080391,32.9752063 150.722973,34.1082207 150,35 C148.38229,36.484511 145.89771,36.484511 144.28,35 C142.948011,33.1148828 142.948011,30.5951172 144.28,28.71 C145.036761,27.9466017 146.087425,27.5489548 147.16,27.62 C148.21884,27.5487906 149.256031,27.9432155 150,28.7 C150.716838,29.5795057 151.074118,30.6977926 151,31.83 Z M144.71,31.83 C144.653808,32.6461262 144.868204,33.4580177 145.32,34.14 C145.76991,34.6780316 146.450293,34.968031 147.15,34.92 C147.841975,34.9688713 148.515316,34.6824225 148.96,34.15 C149.773104,32.7173276 149.773104,30.9626724 148.96,29.53 C148.523595,28.9903729 147.852604,28.6958823 147.16,28.74 C146.458567,28.6943903 145.77787,28.988243 145.33,29.53 C144.859228,30.2014038 144.626872,31.0111292 144.67,31.83 L144.71,31.83 Z" id="Shape"></path>
                <path d="M158.7,32.67 L158.7,36 L157.35,36 L157.35,27.72 L159.68,27.72 C160.514269,27.6564632 161.346463,27.867145 162.05,28.32 C162.579815,28.7615685 162.86303,29.4323412 162.81,30.12 C162.82944,31.126619 162.174894,32.0225286 161.21,32.31 L163.54,36 L162,36 L160,32.71 L158.7,32.67 Z M158.7,31.55 L159.64,31.55 C160.120267,31.5953688 160.601299,31.4715739 161,31.2 C161.286161,30.9481024 161.444025,30.5809773 161.43,30.2 C161.460353,29.8094688 161.286292,29.4310744 160.97,29.2 C160.547416,28.9720762 160.06907,28.8680879 159.59,28.9 L158.7,28.9 L158.7,31.55 Z" id="Shape"></path>
                <path d="M174.11,33.72 C174.138785,34.3921056 173.840738,35.0366335 173.31,35.45 C172.672779,35.9027163 171.900375,36.1249146 171.12,36.08 C170.333334,36.1068558 169.550697,35.9564802 168.83,35.64 L168.83,34.37 C169.216313,34.543856 169.61807,34.6811229 170.03,34.78 C170.414937,34.8832535 170.811466,34.9370201 171.21,34.94 C171.626787,34.9699517 172.041751,34.8609359 172.39,34.63 C172.640002,34.4327612 172.781119,34.1282461 172.77,33.81 C172.775956,33.5107202 172.647529,33.2245111 172.42,33.03 C171.982887,32.7026221 171.496931,32.4461453 170.98,32.27 C170.376446,32.0711802 169.830616,31.7278911 169.39,31.27 C169.080285,30.8662492 168.91797,30.3687173 168.93,29.86 C168.903751,29.2321561 169.174109,28.6284807 169.66,28.23 C170.237791,27.806779 170.945013,27.5981487 171.66,27.64 C172.474586,27.6445036 173.278954,27.8217371 174.02,28.16 L173.59,29.26 C172.960945,28.9740446 172.280776,28.8176058 171.59,28.8 C171.234132,28.7730419 170.880126,28.8721637 170.59,29.08 C170.374216,29.2695698 170.250364,29.5427728 170.25,29.83 C170.242571,30.0230065 170.291197,30.2140344 170.39,30.38 C170.500149,30.5564736 170.651041,30.703936 170.83,30.81 C171.186576,31.0228662 171.561388,31.2035789 171.95,31.35 C172.422478,31.5274794 172.869627,31.7661832 173.28,32.06 C173.54274,32.2495275 173.755507,32.5000435 173.9,32.79 C174.035046,33.0816387 174.106624,33.3986294 174.11,33.72 L174.11,33.72 Z" id="Path"></path>
                <polygon id="Path" points="15.13 1.05 15.13 9.35 4.73 9.35 4.73 1.05 1 1.05 1 21.16 4.74 21.16 4.74 12.54 15.14 12.54 15.14 21.16 18.88 21.16 18.88 1.05"></polygon>
                <polygon id="Path" points="26.28 4.8 26.28 21.16 30 21.16 30 1.08"></polygon>
                <polygon id="Path" points="75.78 4.48 75.78 9.36 65.38 9.36 65.38 1.05 61.65 1.05 61.65 21.16 65.38 21.16 65.38 12.54 75.78 12.54 75.78 21.16 79.52 21.16 79.52 0.76"></polygon>
                <polygon id="Path" points="90.66 18 90.66 0.76 86.93 0.76 86.93 21.16 101.18 21.16 101.18 18"></polygon>
                <path d="M119.34,16.51 L109.28,16.51 L107.28,21.16 L103.43,21.16 L112.48,1.05 L116.16,1.05 L125.24,21.16 L121.33,21.16 L119.34,16.51 Z M118.1,13.57 L114.31,4.78 L110.54,13.57 L118.1,13.57 Z" id="Shape"></path>
                <polygon id="Path" points="147.7 1.05 147.7 21.16 144.62 21.16 133.53 7.54 133.53 21.16 129.82 21.16 129.82 1.05 132.9 1.05 144 14.67 144 1.05"></polygon>
                <path d="M163.9,1 L155.11,1 L155.11,21.16 L163.9,21.16 C170.42,21.16 174.9,17.16 174.9,11.1 C174.9,5.04 170.42,1 163.9,1 Z M163.73,18 L158.85,18 L158.85,4.21 L163.73,4.21 C168.21,4.21 171.11,6.94 171.11,11.1 C171.11,15.26 168.21,18 163.73,18 L163.73,18 Z" id="Shape"></path>
                <path d="M54.72,10.87 L54.72,18.87 C53.7401474,19.646474 52.6340152,20.2485887 51.45,20.65 C49.9714594,21.1657955 48.4159148,21.4261802 46.85,21.42 C44.8225019,21.4468172 42.8231676,20.9435365 41.05,19.96 C39.4871712,19.0790419 38.1967706,17.7851818 37.32,16.22 C35.5863217,13.0197106 35.5863217,9.16028944 37.32,5.96 C37.7087461,5.23215187 38.193034,4.55952976 38.76,3.96 C40.9120249,1.79768245 43.8603836,0.618338979 46.91,0.7 C49.9172174,0.563728847 52.8357159,1.73842451 54.91,3.92 L54.91,3.98 L52.55,6.28 L52.55,6.28 C51.1210824,4.79529364 49.1403982,3.96970684 47.08,4 C44.7307738,3.91680003 42.4896014,4.98882752 41.08,6.87 C39.3177893,9.48824961 39.3938751,12.9321322 41.27,15.47 C42.6826616,17.2183451 44.8334498,18.2030432 47.08,18.13 C48.5244455,18.1714521 49.9537345,17.8262133 51.22,17.13 L51.22,14.08 L48.4,14.08 L48.4,10.88 L54.75,10.88 L54.72,10.87 Z" id="Path"></path>
            </g>
        </g>
    </g>
</svg>