<?xml version="1.0" encoding="UTF-8"?>
<svg width="235px" height="37px" viewBox="0 0 235 37" version="1.1" xmlns="http://www.w3.org/2000/svg" xmlns:xlink="http://www.w3.org/1999/xlink">
    <title>61C5678E-D802-4561-B75F-02946675FCE3</title>
    <g id="Main" stroke="none" stroke-width="1" fill="none" fill-rule="evenodd">
        <g id="Main-designed" transform="translate(-135.000000, -4273.000000)" fill="#FFFFFF">
            <g id="Footer" transform="translate(0.000000, 4203.000000)">
                <g id="HL_logo_bird_white" transform="translate(135.000000, 70.000000)">
                    <path d="M64.9,28.76 C64.1971041,28.7265304 63.5206106,29.0313242 63.08,29.58 C62.5990777,30.2355277 62.3621093,31.0383909 62.41,31.85 C62.3555109,32.6671454 62.5812646,33.4784475 63.05,34.15 C63.5129577,34.6809665 64.1970292,34.9656882 64.9,34.92 C65.2358797,34.9210284 65.570975,34.8875188 65.9,34.82 C66.2266667,34.7533333 66.56,34.6633333 66.9,34.55 L66.9,35.71 C66.1945165,35.9632257 65.4495049,36.0885231 64.7,36.08 C63.6864089,36.1259597 62.7022834,35.7323096 62,35 C61.2886223,34.1136598 60.9321977,32.9944866 61,31.86 C60.9837635,31.0840393 61.1444961,30.3145749 61.47,29.61 C61.765373,28.9919287 62.2390483,28.4764585 62.83,28.13 C63.4728508,27.7779753 64.1972954,27.6020387 64.93,27.62 C65.7372386,27.6137701 66.5348822,27.7952084 67.26,28.15 L66.78,29.27 C66.4923404,29.1343649 66.1948232,29.0207066 65.89,28.93 C65.5712607,28.8205748 65.2369845,28.7631738 64.9,28.76 Z" id="Path" fill-rule="nonzero"></path>
                    <path d="M78.45,36 L77.63,33.71 L74.48,33.71 L73.67,36 L72.25,36 L75.33,27.72 L76.8,27.72 L79.88,36 L78.45,36 Z M77.27,32.55 L76.5,30.31 C76.44,30.16 76.37,29.92 76.27,29.6 C76.17,29.28 76.1,29.04 76.06,28.89 C75.9438673,29.4028121 75.7935312,29.9072735 75.61,30.4 L74.87,32.55 L77.27,32.55 Z" id="Shape" fill-rule="nonzero"></path>
                    <path d="M91.05,30.2100053 C91.1012061,30.9718538 90.7898458,31.7131879 90.21,32.2100053 C89.509964,32.7103954 88.6587898,32.9540926 87.8,32.9 L86.94,32.9 L86.94,36 L85.59,36 L85.59,27.72 L88,27.72 C88.8194852,27.6586489 89.6351295,27.8810974 90.31,28.35 C90.8314821,28.8218898 91.1047858,29.5088423 91.05,30.2100053 Z M86.94,31.74 L87.66,31.74 C88.1917984,31.7812831 88.7232107,31.6554223 89.18,31.38 C89.5158943,31.1094137 89.6957094,30.6898451 89.66,30.26 C89.6945547,29.8582138 89.5347037,29.4641625 89.23,29.2 C88.8330102,28.9329519 88.3567316,28.8094723 87.88,28.85 L86.94,28.85 L86.94,31.74 Z" id="Shape" fill-rule="nonzero"></path>
                    <polygon id="Path" fill-rule="nonzero" points="97.32 36 97.32 27.72 98.67 27.72 98.67 36"></polygon>
                    <polygon id="Path" fill-rule="nonzero" points="108.31 36 107 36 107 28.87 104.58 28.87 104.58 27.72 110.78 27.72 110.78 28.87 108.35 28.87"></polygon>
                    <path d="M121.73,36 L120.91,33.71 L117.76,33.71 L117,36 L115.58,36 L118.66,27.72 L120.13,27.72 L123.17,36 L121.73,36 Z M120.55,32.55 L119.78,30.31 C119.73,30.16 119.65,29.92 119.55,29.6 C119.45,29.28 119.38,29.04 119.34,28.89 C119.222935,29.4014909 119.076017,29.9056873 118.9,30.4 L118.15,32.55 L120.55,32.55 Z" id="Shape" fill-rule="nonzero"></path>
                    <polygon id="Path" fill-rule="nonzero" points="128.87 36 128.87 27.72 130.22 27.72 130.22 34.81 133.71 34.81 133.71 36"></polygon>
                    <path d="M152.49,36 L151.66,33.71 L148.51,33.71 L147.71,36 L146.28,36 L149.37,27.72 L150.84,27.72 L153.92,36 L152.49,36 Z M151.31,32.55 L150.54,30.31 C150.48,30.16 150.4,29.92 150.3,29.6 C150.2,29.28 150.13,29.04 150.1,28.89 C149.983867,29.4028121 149.833531,29.9072735 149.65,30.4 L148.91,32.55 L151.31,32.55 Z" id="Shape" fill-rule="nonzero"></path>
                    <path d="M166.33,31.76 C166.411094,32.9129471 166.000588,34.0463803 165.2,34.88 C164.302279,35.6664383 163.131501,36.0686688 161.94,36 L159.63,36 L159.63,27.72 L162.18,27.72 C163.300686,27.6500841 164.402704,28.0318288 165.24,28.78 C166.004946,29.5766559 166.400397,30.6577993 166.33,31.76 L166.33,31.76 Z M164.91,31.76 C164.91,29.76 163.99,28.76 162.14,28.76 L161,28.76 L161,34.76 L162,34.76 C163.92,34.83 164.91,33.82 164.91,31.81 L164.91,31.76 Z" id="Shape" fill-rule="nonzero"></path>
                    <path d="M177.42,27.72 L178.82,27.72 L175.93,36 L174.51,36 L171.64,27.76 L173,27.76 L174.72,32.88 C174.81,33.13 174.91,33.44 175.01,33.88 C175.11,34.32 175.18,34.55 175.21,34.74 C175.26,34.45 175.33,34.12 175.43,33.74 C175.53,33.36 175.62,33.08 175.68,32.9 L177.42,27.72 Z" id="Path" fill-rule="nonzero"></path>
                    <polygon id="Path" fill-rule="nonzero" points="184.53 36 184.53 27.72 185.88 27.72 185.88 36"></polygon>
                    <path d="M197.43,33.72 C197.458785,34.3921056 197.160738,35.0366335 196.63,35.45 C195.992779,35.9027163 195.220375,36.1249146 194.44,36.08 C193.653254,36.1078899 192.870389,35.9574704 192.15,35.64 L192.15,34.37 C192.535728,34.5453335 192.937628,34.6826494 193.35,34.78 C193.734807,34.8839029 194.131419,34.9376809 194.53,34.94 C194.946787,34.9699517 195.361751,34.8609359 195.71,34.63 C195.960002,34.4327612 196.101119,34.1282461 196.09,33.81 C196.095956,33.5107202 195.967529,33.2245111 195.74,33.03 C195.302887,32.7026221 194.816931,32.4461453 194.3,32.27 C193.696446,32.0711802 193.150616,31.7278911 192.71,31.27 C192.397429,30.867187 192.231631,30.3697928 192.24,29.86 C192.21617,29.2304415 192.490372,28.6264551 192.98,28.23 C193.557031,27.8052463 194.264819,27.5964491 194.98,27.64 C195.791485,27.6434728 196.592806,27.8207863 197.33,28.16 L196.91,29.26 C196.280945,28.9740446 195.600776,28.8176058 194.91,28.8 C194.554132,28.7730419 194.200126,28.8721637 193.91,29.08 C193.684863,29.2624934 193.558878,29.5404025 193.57,29.83 C193.562571,30.0230065 193.611197,30.2140344 193.71,30.38 C193.820149,30.5564736 193.971041,30.703936 194.15,30.81 C194.506576,31.0228662 194.881388,31.2035789 195.27,31.35 C195.741422,31.5298046 196.188283,31.768354 196.6,32.06 C196.86274,32.2495275 197.075507,32.5000435 197.22,32.79 C197.355046,33.0816387 197.426624,33.3986294 197.43,33.72 L197.43,33.72 Z" id="Path" fill-rule="nonzero"></path>
                    <path d="M211,31.83 C211.080391,32.9752063 210.722973,34.1082207 210,35 C208.38229,36.484511 205.89771,36.484511 204.28,35 C202.948011,33.1148828 202.948011,30.5951172 204.28,28.71 C205.036761,27.9466017 206.087425,27.5489548 207.16,27.62 C208.21884,27.5487906 209.256031,27.9432155 210,28.7 C210.716838,29.5795057 211.074118,30.6977926 211,31.83 Z M204.71,31.83 C204.653808,32.6461262 204.868204,33.4580177 205.32,34.14 C205.76991,34.6780316 206.450293,34.968031 207.15,34.92 C207.841975,34.9688713 208.515316,34.6824225 208.96,34.15 C209.773104,32.7173276 209.773104,30.9626724 208.96,29.53 C208.523595,28.9903729 207.852604,28.6958823 207.16,28.74 C206.458567,28.6943903 205.77787,28.988243 205.33,29.53 C204.859228,30.2014038 204.626872,31.0111292 204.67,31.83 L204.71,31.83 Z" id="Shape" fill-rule="nonzero"></path>
                    <path d="M218.7,32.67 L218.7,36 L217.35,36 L217.35,27.72 L219.68,27.72 C220.514269,27.6564632 221.346463,27.867145 222.05,28.32 C222.579815,28.7615685 222.86303,29.4323412 222.81,30.12 C222.82944,31.126619 222.174894,32.0225286 221.21,32.31 L223.54,36 L222,36 L220,32.71 L218.7,32.67 Z M218.7,31.55 L219.64,31.55 C220.120267,31.5953688 220.601299,31.4715739 221,31.2 C221.286161,30.9481024 221.444025,30.5809773 221.43,30.2 C221.460353,29.8094688 221.286292,29.4310744 220.97,29.2 C220.547416,28.9720762 220.06907,28.8680879 219.59,28.9 L218.7,28.9 L218.7,31.55 Z" id="Shape" fill-rule="nonzero"></path>
                    <path d="M234.11,33.72 C234.138785,34.3921056 233.840738,35.0366335 233.31,35.45 C232.672779,35.9027163 231.900375,36.1249146 231.12,36.08 C230.333334,36.1068558 229.550697,35.9564802 228.83,35.64 L228.83,34.37 C229.216313,34.543856 229.61807,34.6811229 230.03,34.78 C230.414937,34.8832535 230.811466,34.9370201 231.21,34.94 C231.626787,34.9699517 232.041751,34.8609359 232.39,34.63 C232.640002,34.4327612 232.781119,34.1282461 232.77,33.81 C232.775956,33.5107202 232.647529,33.2245111 232.42,33.03 C231.982887,32.7026221 231.496931,32.4461453 230.98,32.27 C230.376446,32.0711802 229.830616,31.7278911 229.39,31.27 C229.080285,30.8662492 228.91797,30.3687173 228.93,29.86 C228.903751,29.2321561 229.174109,28.6284807 229.66,28.23 C230.237791,27.806779 230.945013,27.5981487 231.66,27.64 C232.474586,27.6445036 233.278954,27.8217371 234.02,28.16 L233.59,29.26 C232.960945,28.9740446 232.280776,28.8176058 231.59,28.8 C231.234132,28.7730419 230.880126,28.8721637 230.59,29.08 C230.374216,29.2695698 230.250364,29.5427728 230.25,29.83 C230.242571,30.0230065 230.291197,30.2140344 230.39,30.38 C230.500149,30.5564736 230.651041,30.703936 230.83,30.81 C231.186576,31.0228662 231.561388,31.2035789 231.95,31.35 C232.422478,31.5274794 232.869627,31.7661832 233.28,32.06 C233.54274,32.2495275 233.755507,32.5000435 233.9,32.79 C234.035046,33.0816387 234.106624,33.3986294 234.11,33.72 L234.11,33.72 Z" id="Path" fill-rule="nonzero"></path>
                    <polygon id="Path" fill-rule="nonzero" points="75.13 1.05 75.13 9.35 64.73 9.35 64.73 1.05 61 1.05 61 21.16 64.74 21.16 64.74 12.54 75.14 12.54 75.14 21.16 78.88 21.16 78.88 1.05"></polygon>
                    <polygon id="Path" fill-rule="nonzero" points="86.28 4.8 86.28 21.16 90 21.16 90 1.08"></polygon>
                    <polygon id="Path" fill-rule="nonzero" points="135.78 4.48 135.78 9.36 125.38 9.36 125.38 1.05 121.65 1.05 121.65 21.16 125.38 21.16 125.38 12.54 135.78 12.54 135.78 21.16 139.52 21.16 139.52 0.76"></polygon>
                    <polygon id="Path" fill-rule="nonzero" points="150.66 18 150.66 0.76 146.93 0.76 146.93 21.16 161.18 21.16 161.18 18"></polygon>
                    <path d="M179.34,16.51 L169.28,16.51 L167.28,21.16 L163.43,21.16 L172.48,1.05 L176.16,1.05 L185.24,21.16 L181.33,21.16 L179.34,16.51 Z M178.1,13.57 L174.31,4.78 L170.54,13.57 L178.1,13.57 Z" id="Shape" fill-rule="nonzero"></path>
                    <polygon id="Path" fill-rule="nonzero" points="207.7 1.05 207.7 21.16 204.62 21.16 193.53 7.54 193.53 21.16 189.82 21.16 189.82 1.05 192.9 1.05 204 14.67 204 1.05"></polygon>
                    <path d="M223.9,1 L215.11,1 L215.11,21.16 L223.9,21.16 C230.42,21.16 234.9,17.16 234.9,11.1 C234.9,5.04 230.42,1 223.9,1 Z M223.73,18 L218.85,18 L218.85,4.21 L223.73,4.21 C228.21,4.21 231.11,6.94 231.11,11.1 C231.11,15.26 228.21,18 223.73,18 L223.73,18 Z" id="Shape" fill-rule="nonzero"></path>
                    <path d="M114.72,10.87 L114.72,18.87 C113.740147,19.646474 112.634015,20.2485887 111.45,20.65 C109.971459,21.1657955 108.415915,21.4261802 106.85,21.42 C104.822502,21.4468172 102.823168,20.9435365 101.05,19.96 C99.4871712,19.0790419 98.1967706,17.7851818 97.32,16.22 C95.5863217,13.0197106 95.5863217,9.16028944 97.32,5.96 C97.7087461,5.23215187 98.193034,4.55952976 98.76,3.96 C100.912025,1.79768245 103.860384,0.618338979 106.91,0.7 C109.917217,0.563728847 112.835716,1.73842451 114.91,3.92 L114.91,3.98 L112.55,6.28 L112.55,6.28 C111.121082,4.79529364 109.140398,3.96970684 107.08,4 C104.730774,3.91680003 102.489601,4.98882752 101.08,6.87 C99.3177893,9.48824961 99.3938751,12.9321322 101.27,15.47 C102.682662,17.2183451 104.83345,18.2030432 107.08,18.13 C108.524446,18.1714521 109.953735,17.8262133 111.22,17.13 L111.22,14.08 L108.4,14.08 L108.4,10.88 L114.75,10.88 L114.72,10.87 Z" id="Path" fill-rule="nonzero"></path>
                    <path d="M42.14,19.21 C41.81,19.21 41.46,19.21 41.14,19.15 C40.1340546,19.1032068 39.132064,18.9929878 38.14,18.82 C36.0336628,18.5695414 34.0881382,17.5683773 32.66,16 L32.54,15.86 C31.99,15.11 32.08,14.98 33.34,14.22 C34.2350972,13.7264873 34.8838313,12.8820457 35.13,11.89 C35.1389969,11.3280799 35.4808259,10.825159 36,10.61 C37.0328802,10.1884163 38.1204102,9.91569205 39.23,9.8 C41.53,9.39 43.58,8.89 45,7.39 C45,7.39 45,7.39 45,7.39 C44.38,7.49 36.28,8.77 34.45,8.7 C33.9891153,8.60137998 33.5208421,8.54117342 33.05,8.52 C31.5509826,8.86719965 30.2000056,9.67918587 29.19,10.84 C29.5839467,11.0369591 29.9560073,11.2749438 30.3,11.55 C30.72,11.99 30.3,12.38 29.16,12.31 C26.625482,11.9748392 24.4129489,10.4264391 23.23,8.16 C22.6373066,6.86993969 22.2978277,5.47807632 22.23,4.06 C22.15,2.88 22,1.68 20.78,1.06 C19.9931714,0.761201558 19.1454791,0.658242974 18.31,0.76 C17.31,0.76 2.15,0.76 2.14,0.76 C3.07,2.02 5.52,2.16 5.52,2.16 L0.64,2.16 C1.32,3.66 7.17,4.16 7.17,4.16 L3.47,4.16 C4.28,5.16 6.89,5.56 8.88,5.77 C9.88672832,5.83625834 10.888546,5.96315524 11.88,6.15 C12.5867522,6.30397149 13.2373012,6.65000819 13.76,7.15 C14.3089213,7.81797931 14.6926333,8.6059593 14.88,9.45 C15.88,12.45 16.97,14.55 20.8,17.34 C20.1,20.34 13.48,19.68 13.42,19.67 C13.36,19.66 18.87,23.88 20.11,24.9 C20.96,23.13 22.01,21.18 23.81,20.74 C26.3395104,20.063393 28.6797231,18.8145953 30.65,17.09 C29.37,19.67 26.24,20.85 26.3,20.91 C28.6986242,22.8408583 31.5236207,24.1710752 34.54,24.79 C42.54,26.35 39.27,31.6 41.4,33.53 L41.4,30.7 C41.4,30.7 42.11,35.58 43.67,36.08 C43.67,34.53 43.67,32.35 43.67,32.35 C43.67,32.35 43.9,34.72 45.05,35.41 C45.05,34.11 45.05,25.33 45.05,23.84 C45.05,22.55 45.13,20.97 44.12,19.99 C43.583788,19.486748 42.8753778,19.2076773 42.14,19.21 Z" id="Path"></path>
                </g>
            </g>
        </g>
    </g>
</svg>