<?xml version="1.0" encoding="UTF-8"?>
<svg width="162px" height="34px" viewBox="0 0 162 34" version="1.1" xmlns="http://www.w3.org/2000/svg" xmlns:xlink="http://www.w3.org/1999/xlink">
    <title>C73FE922-6671-4BD8-9A9F-C2951BB66C4E</title>
    <defs>
        <polygon id="path-1" points="0.00137076923 0.217613208 5.82277846 0.217613208 5.82277846 8.09433962 0.00137076923 8.09433962"></polygon>
        <polygon id="path-3" points="0 32.8192472 161.707154 32.8192472 161.707154 -0.000186792453 0 -0.000186792453"></polygon>
    </defs>
    <g id="Main" stroke="none" stroke-width="1" fill="none" fill-rule="evenodd">
        <g id="About-us-design" transform="translate(-134.000000, -29.000000)">
            <g id="Group-29-Copy" transform="translate(134.000000, 29.000000)">
                <g id="Group-3" transform="translate(0.000000, 24.724908)">
                    <mask id="mask-2" fill="white">
                        <use xlink:href="#path-1"></use>
                    </mask>
                    <g id="Clip-2"></g>
                    <path d="M3.64076308,1.29229245 C2.92110923,1.29229245 2.35473231,1.54633019 1.94163231,2.05689623 C1.52915538,2.56683962 1.32291692,3.27104717 1.32291692,4.16889623 C1.32291692,5.10846226 1.52167846,5.81951887 1.91795538,6.30206604 C2.31485538,6.78399057 2.88933231,7.02495283 3.64076308,7.02495283 C3.96600923,7.02495283 4.28066308,6.99257547 4.58534769,6.9284434 C4.88940923,6.86306604 5.20593231,6.78025472 5.53429385,6.67876415 L5.53429385,7.7534434 C4.93302462,7.98008491 4.25075538,8.09465094 3.48873231,8.09465094 C2.36657077,8.09465094 1.50485538,7.75406604 0.903586154,7.07476415 C0.302316923,6.39546226 0.00137076923,5.42351887 0.00137076923,4.15893396 C0.00137076923,3.36133019 0.147793846,2.66459434 0.439393846,2.06748113 C0.731616923,1.46974528 1.15344,1.01272642 1.70610923,0.693933962 C2.25815538,0.376386792 2.90677846,0.217613208 3.65197846,0.217613208 C4.43456308,0.217613208 5.15857846,0.381367925 5.82277846,0.7095 L5.37167077,1.75242453 C5.11247077,1.63038679 4.83956308,1.52329245 4.55107846,1.43114151 C4.26259385,1.33774528 3.95915538,1.29229245 3.64076308,1.29229245" id="Fill-1" fill="#FFFFFF" mask="url(#mask-2)"></path>
                </g>
                <path d="M15.1427631,29.5067943 L14.4249785,27.4215679 C14.3720169,27.2820962 14.2991169,27.0610585 14.2069015,26.7609453 C14.1140631,26.4608321 14.0505092,26.240417 14.0149938,26.1003226 C13.9209092,26.5305679 13.7825862,27.0006623 13.6006477,27.5106057 L12.9090323,29.5067943 L15.1427631,29.5067943 Z M16.2393785,32.7146434 L15.4729938,30.5864547 L12.5414169,30.5864547 L11.7918554,32.7146434 L10.4703092,32.7146434 L13.3383323,25.0212849 L14.7022477,25.0212849 L17.5708938,32.7146434 L16.2393785,32.7146434 Z" id="Fill-4" fill="#FFFFFF"></path>
                <path d="M24.1329531,28.7941811 L24.7983992,28.7941811 C25.4426608,28.7941811 25.9137069,28.6827283 26.2146531,28.4592 C26.5155992,28.2356717 26.6657608,27.8863698 26.6657608,27.4106717 C26.6657608,26.9704642 26.5311762,26.6417094 26.2620069,26.4256528 C25.9922146,26.2089736 25.5735069,26.100634 25.0033915,26.100634 L24.1329531,26.100634 L24.1329531,28.7941811 Z M27.9561531,27.3689547 C27.9561531,28.1684264 27.6938377,28.7823509 27.1692069,29.2088604 C26.6445762,29.6353698 25.89813,29.8476906 24.9298685,29.8476906 L24.1329531,29.8476906 L24.1329531,32.7149547 L22.8793223,32.7149547 L22.8793223,25.0521057 L25.0868838,25.0521057 C26.0451762,25.0521057 26.7629608,25.2482377 27.2396146,25.6392566 C27.7175146,26.0308981 27.9561531,26.6074642 27.9561531,27.3689547 L27.9561531,27.3689547 Z" id="Fill-6" fill="#FFFFFF"></path>
                <mask id="mask-4" fill="white">
                    <use xlink:href="#path-3"></use>
                </mask>
                <g id="Clip-9"></g>
                <polygon id="Fill-8" fill="#FFFFFF" mask="url(#mask-4)" points="33.7832308 32.715266 35.0368615 32.715266 35.0368615 25.052417 33.7832308 25.052417"></polygon>
                <polygon id="Fill-10" fill="#FFFFFF" mask="url(#mask-4)" points="44.00568 32.7148925 42.7520492 32.7148925 42.7520492 26.1267226 40.4971338 26.1267226 40.4971338 25.0520434 46.2605954 25.0520434 46.2605954 26.1267226 44.00568 26.1267226"></polygon>
                <path d="M55.3920369,29.5067943 L54.6736292,27.4215679 C54.6212908,27.2820962 54.5483908,27.0610585 54.4555523,26.7609453 C54.3633369,26.4608321 54.29916,26.240417 54.2642677,26.1003226 C54.1701831,26.5305679 54.0312369,27.0006623 53.8499215,27.5106057 L53.1576831,29.5067943 L55.3920369,29.5067943 Z M56.4880292,32.7146434 L55.7222677,30.5864547 L52.7906908,30.5864547 L52.0411292,32.7146434 L50.7195831,32.7146434 L53.5876062,25.0212849 L54.9515215,25.0212849 L57.8195446,32.7146434 L56.4880292,32.7146434 Z" id="Fill-11" fill="#FFFFFF" mask="url(#mask-4)"></path>
                <polygon id="Fill-12" fill="#FFFFFF" mask="url(#mask-4)" points="63.12816 32.7148925 63.12816 25.0520434 64.3817908 25.0520434 64.3817908 31.6395906 67.6280215 31.6395906 67.6280215 32.7148925"></polygon>
                <path d="M83.9927631,29.5067943 L83.2743554,27.4215679 C83.2220169,27.2820962 83.1491169,27.0610585 83.0562785,26.7609453 C82.9640631,26.4608321 82.8998862,26.240417 82.8649938,26.1003226 C82.7709092,26.5305679 82.6325862,27.0006623 82.4506477,27.5106057 L81.7584092,29.5067943 L83.9927631,29.5067943 Z M85.0887554,32.7146434 L84.3229938,30.5864547 L81.3914169,30.5864547 L80.6418554,32.7146434 L79.3196862,32.7146434 L82.1883323,25.0212849 L83.5522477,25.0212849 L86.4202708,32.7146434 L85.0887554,32.7146434 Z" id="Fill-13" fill="#FFFFFF" mask="url(#mask-4)"></path>
                <path d="M96.6429069,28.8519623 C96.6429069,27.018283 95.78493,26.1005094 94.06773,26.1005094 L92.98233,26.1005094 L92.98233,31.6613208 L93.8739531,31.6613208 C95.72013,31.6613208 96.6429069,30.7248679 96.6429069,28.8519623 M97.9644531,28.8102453 C97.9644531,30.0748302 97.6130377,31.0424151 96.9102069,31.7105094 C96.2073762,32.3798491 95.1954992,32.7148302 93.8739531,32.7148302 L91.7286992,32.7148302 L91.7286992,25.0519811 L94.0995069,25.0519811 C95.3194915,25.0519811 96.2684377,25.3813585 96.9469685,26.0376226 C97.6248762,26.6945094 97.9644531,27.6185094 97.9644531,28.8102453" id="Fill-14" fill="#FFFFFF" mask="url(#mask-4)"></path>
                <path d="M108.275691,25.0522302 L109.576675,25.0522302 L106.891214,32.7150792 L105.569668,32.7150792 L102.894798,25.0522302 L104.185814,25.0522302 L105.784629,29.8154377 C105.868745,30.0439472 105.957845,30.335966 106.052552,30.6939849 C106.146637,31.0520038 106.207698,31.3178717 106.235737,31.4934566 C106.281222,31.2282113 106.351006,30.9206264 106.445091,30.5700792 C106.539798,30.2214 106.616437,29.9636264 106.676252,29.7948906 L108.275691,25.0522302 Z" id="Fill-15" fill="#FFFFFF" mask="url(#mask-4)"></path>
                <polygon id="Fill-16" fill="#FFFFFF" mask="url(#mask-4)" points="114.884169 32.715266 116.1378 32.715266 116.1378 25.052417 114.884169 25.052417"></polygon>
                <path d="M126.879771,30.6341491 C126.879771,31.3153189 126.633032,31.8495453 126.140178,32.2368283 C125.646702,32.624734 124.967548,32.8196208 124.100225,32.8196208 C123.232902,32.8196208 122.52384,32.6845075 121.971171,32.4155264 L121.971171,31.2312623 C122.32134,31.3956396 122.692071,31.5245264 123.085232,31.6191679 C123.479017,31.7138094 123.844763,31.7611302 124.18434,31.7611302 C124.680932,31.7611302 125.047302,31.665866 125.282825,31.4772057 C125.518971,31.2891679 125.636732,31.0357528 125.636732,30.7182057 C125.636732,30.4317906 125.528317,30.1883377 125.311486,29.9897151 C125.095278,29.7904698 124.647286,29.553866 123.969378,29.2817717 C123.269663,28.9984698 122.776809,28.6753189 122.490194,28.3123189 C122.203578,27.9493189 122.060271,27.5116019 122.060271,27.0016585 C122.060271,26.3634509 122.287071,25.859734 122.741917,25.4923755 C123.196763,25.1256396 123.806755,24.942583 124.572517,24.942583 C125.306502,24.942583 126.037371,25.1032245 126.763878,25.4251302 L126.365732,26.4462623 C125.684086,26.1598472 125.07534,26.0172623 124.54074,26.0172623 C124.13574,26.0172623 123.82794,26.1050547 123.617963,26.2818849 C123.408609,26.4574698 123.303309,26.6909604 123.303309,26.9811113 C123.303309,27.1803566 123.345055,27.3503377 123.429171,27.4916774 C123.513286,27.6336396 123.650363,27.7675075 123.843517,27.8932811 C124.036048,28.0190547 124.381855,28.1840547 124.881563,28.3901491 C125.444202,28.6248849 125.856678,28.8434321 126.119617,29.0464132 C126.381932,29.2487717 126.57384,29.4779038 126.695963,29.7325642 C126.818086,29.9878472 126.879771,30.2879604 126.879771,30.6341491" id="Fill-17" fill="#FFFFFF" mask="url(#mask-4)"></path>
                <path d="M133.61436,28.8731943 C133.61436,29.8158736 133.805645,30.5319113 134.186345,31.0181943 C134.567045,31.5063453 135.132175,31.7497981 135.880491,31.7497981 C136.625068,31.7497981 137.18646,31.5088358 137.566537,31.0269113 C137.945368,30.5449868 138.135406,29.8264585 138.135406,28.8731943 C138.135406,27.9330057 137.947237,27.2207038 137.572145,26.7344208 C137.195806,26.2487604 136.63566,26.0065528 135.89046,26.0065528 C135.139029,26.0065528 134.571406,26.2487604 134.188837,26.7344208 C133.806268,27.2207038 133.61436,27.9330057 133.61436,28.8731943 M139.467545,28.8731943 C139.467545,30.1197226 139.155383,31.0897981 138.531683,31.7815528 C137.90736,32.4733075 137.023837,32.8194962 135.880491,32.8194962 C134.722814,32.8194962 133.834306,32.4757981 133.213098,31.7896472 C132.592514,31.1028736 132.282222,30.127817 132.282222,28.8626094 C132.282222,27.5974019 132.594383,26.6267038 133.218706,25.9486472 C133.842406,25.2705906 134.733406,24.9324962 135.89046,24.9324962 C137.030068,24.9324962 137.911098,25.2761943 138.534175,25.9642132 C139.156006,26.6528547 139.467545,27.6223075 139.467545,28.8731943" id="Fill-18" fill="#FFFFFF" mask="url(#mask-4)"></path>
                <path d="M146.663086,28.6159811 L147.533525,28.6159811 C148.117971,28.6159811 148.54104,28.5076415 148.803355,28.2909623 C149.065048,28.0749057 149.195894,27.753 149.195894,27.3271132 C149.195894,26.8937547 149.055078,26.5830566 148.771578,26.3937736 C148.488702,26.2057358 148.061894,26.1110943 147.492402,26.1110943 L146.663086,26.1110943 L146.663086,28.6159811 Z M146.663086,29.6533019 L146.663086,32.7148302 L145.409455,32.7148302 L145.409455,25.0519811 L147.575894,25.0519811 C148.56534,25.0519811 149.298078,25.2369057 149.773486,25.6086226 C150.248894,25.9784717 150.486909,26.5369811 150.486909,27.2847736 C150.486909,28.239283 149.990317,28.9179623 148.997132,29.3239245 L151.162948,32.7148302 L149.736725,32.7148302 L147.90114,29.6533019 L146.663086,29.6533019 Z" id="Fill-19" fill="#FFFFFF" mask="url(#mask-4)"></path>
                <path d="M160.991425,30.6341491 C160.991425,31.3153189 160.74531,31.8495453 160.252456,32.2368283 C159.758979,32.624734 159.079825,32.8196208 158.212502,32.8196208 C157.345179,32.8196208 156.636118,32.6845075 156.082825,32.4155264 L156.082825,31.2312623 C156.432995,31.3956396 156.803725,31.5245264 157.19751,31.6191679 C157.591295,31.7138094 157.957041,31.7611302 158.296618,31.7611302 C158.792587,31.7611302 159.159579,31.665866 159.395102,31.4772057 C159.630625,31.2891679 159.74901,31.0357528 159.74901,30.7182057 C159.74901,30.4317906 159.640595,30.1883377 159.423764,29.9897151 C159.206933,29.7904698 158.759564,29.553866 158.081656,29.2817717 C157.381941,28.9984698 156.889087,28.6753189 156.602472,28.3123189 C156.315233,27.9493189 156.172548,27.5116019 156.172548,27.0016585 C156.172548,26.3634509 156.399348,25.859734 156.853572,25.4923755 C157.309041,25.1256396 157.91841,24.942583 158.684795,24.942583 C159.418779,24.942583 160.149025,25.1032245 160.876156,25.4251302 L160.47801,26.4462623 C159.796364,26.1598472 159.187618,26.0172623 158.653018,26.0172623 C158.247395,26.0172623 157.940218,26.1050547 157.730241,26.2818849 C157.520264,26.4574698 157.415587,26.6909604 157.415587,26.9811113 C157.415587,27.1803566 157.45671,27.3503377 157.541448,27.4916774 C157.625564,27.6336396 157.762641,27.7675075 157.955172,27.8932811 C158.147702,28.0190547 158.49351,28.1840547 158.993841,28.3901491 C159.556479,28.6248849 159.968956,28.8434321 160.231272,29.0464132 C160.493587,29.2487717 160.686118,29.4779038 160.808241,29.7325642 C160.930364,29.9878472 160.991425,30.2879604 160.991425,30.6341491" id="Fill-20" fill="#FFFFFF" mask="url(#mask-4)"></path>
                <polygon id="Fill-21" fill="#FFFFFF" mask="url(#mask-4)" points="13.1469231 0.269416981 13.1469231 7.98456792 3.47614615 7.98456792 3.47614615 6.39683208 3.47614615 0.269416981 0 0.269416981 0 18.9617377 3.47614615 18.9617377 3.47614615 10.9477189 13.1469231 10.9477189 13.1469231 18.9617377 16.6236923 18.9617377 16.6236923 0.269416981"></polygon>
                <polygon id="Fill-22" fill="#FFFFFF" mask="url(#mask-4)" points="23.5147362 3.75658302 23.5147362 18.9614887 26.9852746 18.9614887 26.9852746 0.294073585"></polygon>
                <polygon id="Fill-23" fill="#FFFFFF" mask="url(#mask-4)" points="69.5542638 3.46163774 69.5542638 7.99010943 59.8778792 7.99010943 59.8778792 6.39676981 59.8778792 0.269354717 56.4067177 0.269354717 56.4067177 18.9616755 59.8778792 18.9616755 59.8778792 10.9476566 69.5542638 10.9476566 69.5542638 18.9616755 73.0241792 18.9616755 73.0241792 -0.000249056604"></polygon>
                <polygon id="Fill-24" fill="#FFFFFF" mask="url(#mask-4)" points="83.3928023 16.0233057 83.3928023 0.00336226415 79.9160331 0.00336226415 79.9160331 18.9621736 93.1682562 18.9621736 93.1682562 16.0233057"></polygon>
                <path d="M108.908488,11.9092642 L105.381249,3.73833962 L101.880803,11.9092642 L108.908488,11.9092642 Z M110.057442,14.6326981 L100.704434,14.6326981 L98.8613723,18.9588113 L95.2805492,18.9588113 L103.697695,0.267113208 L107.117765,0.267113208 L115.561703,18.9588113 L111.927918,18.9588113 L110.057442,14.6326981 Z" id="Fill-25" fill="#FFFFFF" mask="url(#mask-4)"></path>
                <polygon id="Fill-26" fill="#FFFFFF" mask="url(#mask-4)" points="136.429172 0.266988679 136.429172 18.9593094 133.569872 18.9593094 123.255457 6.30163019 123.255457 18.9593094 119.808595 18.9593094 119.808595 0.266988679 122.667895 0.266988679 132.982311 12.9240453 132.982311 0.266988679"></polygon>
                <path d="M151.339216,16.0233057 L146.796985,16.0233057 L146.796985,3.20311698 L151.339216,3.20311698 C155.506978,3.20311698 158.205524,5.74349434 158.205524,9.61009811 C158.205524,13.4829283 155.506978,16.0233057 151.339216,16.0233057 M151.501216,0.264249057 L143.320216,0.264249057 L143.320216,18.9559472 L151.501216,18.9559472 C157.563755,18.9559472 161.707216,15.2200981 161.707216,9.61009811 C161.707216,4.00632453 157.563755,0.264249057 151.501216,0.264249057" id="Fill-27" fill="#FFFFFF" mask="url(#mask-4)"></path>
                <path d="M49.9644762,9.39740377 L49.9644762,16.8504226 C49.0797069,17.560234 48.0453992,18.1143849 46.9300915,18.5066491 C45.5717838,18.986083 44.0950915,19.2226868 42.6433223,19.2226868 C40.6245531,19.2226868 38.7870992,18.7308 37.25433,17.8591019 C35.7894762,17.0247623 34.5931685,15.835517 33.7831685,14.3847623 C33.0043223,13.0024981 32.5743992,11.3898566 32.5743992,9.6153283 C32.5743992,7.84702642 33.0043223,6.22815849 33.7831685,4.85212075 C34.1507838,4.18589434 34.6062531,3.57570566 35.1290146,3.02840377 C36.9483992,1.12872453 39.6027069,0.00174339623 42.6993992,0.00174339623 C45.8023223,0.00174339623 48.4005531,1.02287547 50.1582531,2.99664906 C50.1763223,3.0153283 50.1950146,3.02840377 50.2074762,3.04646038 L48.0142454,5.18212075 C48.0080146,5.17589434 47.9955531,5.16344151 47.9893223,5.15721509 C46.5250915,3.70646038 44.8490146,3.04646038 42.8620223,3.04646038 C40.4313992,3.04646038 38.4313223,4.05513962 37.25433,5.71759245 C36.4935531,6.77608302 36.0698608,8.10853585 36.0698608,9.6153283 C36.0698608,11.1968377 36.5620915,12.6040075 37.4281685,13.706083 C38.6182454,15.2440075 40.5310915,16.1841962 42.8302454,16.1841962 C44.1698608,16.1841962 45.4783223,15.9164604 46.6808608,15.2191019 L46.6808608,12.3798566 L44.0639377,12.3798566 L44.0639377,9.40363019 L46.6808608,9.40363019 L46.6808608,9.39740377 L49.9644762,9.39740377 Z" id="Fill-28" fill="#FFFFFF" mask="url(#mask-4)"></path>
            </g>
        </g>
    </g>
</svg>