<?xml version="1.0" encoding="UTF-8"?>
<svg width="23px" height="14px" viewBox="0 0 23 14" version="1.1" xmlns="http://www.w3.org/2000/svg" xmlns:xlink="http://www.w3.org/1999/xlink">
    <title>15BA3202-373C-408E-9041-35A150790A5D</title>
    <g id="Main" stroke="none" stroke-width="1" fill="none" fill-rule="evenodd">
        <g id="Main-designed" transform="translate(-134.000000, -870.000000)" fill="#015FFF" fill-rule="nonzero">
            <path d="M153.573242,883.068848 C154.154297,879.184082 154.992676,875.025391 156.088379,870.592773 L156.088379,870.592773 L150.634766,870.592773 C149.754883,872.46875 148.895752,874.548096 148.057373,876.830811 C147.218994,879.113525 146.617188,881.010254 146.251953,882.520996 L146.251953,882.520996 L146.600586,883.068848 L153.573242,883.068848 Z M141.943848,883.068848 C142.524902,879.184082 143.363281,875.025391 144.458984,870.592773 L144.458984,870.592773 L139.005371,870.592773 C138.125488,872.46875 137.266357,874.548096 136.427979,876.830811 C135.5896,879.113525 134.987793,881.010254 134.622559,882.520996 L134.622559,882.520996 L134.971191,883.068848 L141.943848,883.068848 Z" id="“"></path>
        </g>
    </g>
</svg>