<?xml version="1.0" encoding="UTF-8"?>
<svg width="600px" height="611px" viewBox="0 0 600 611" version="1.1" xmlns="http://www.w3.org/2000/svg" xmlns:xlink="http://www.w3.org/1999/xlink">
    <title>68B3B099-FE73-4B65-9AA6-B8ECD9CC5240</title>
    <g id="Main" stroke="none" stroke-width="1" fill="none" fill-rule="evenodd">
        <g id="UI" transform="translate(-283.000000, -1932.000000)" fill="#025FFF">
            <path d="M514.151103,2514.29685 C517.377382,2515.16133 519.146301,2516.55532 519.913052,2517.30932 L520.338891,2517.72809 L517.861293,2521.44065 L517.237086,2520.84641 C516.40986,2520.06044 514.988619,2519.00725 512.912681,2518.451 C509.790724,2517.61447 508.218634,2519.04826 507.821664,2520.52977 C507.304815,2522.45868 508.174525,2523.83385 511.402102,2526.189 C515.880068,2529.44801 517.34406,2532.50651 516.296479,2536.41614 C515.281354,2540.20464 511.513229,2543.9361 504.234496,2541.98577 C501.653752,2541.29426 498.945262,2539.78283 497.646947,2538.31008 L497.292574,2537.90745 L499.681626,2534.05486 L500.329306,2534.73794 C501.694101,2536.17823 503.660235,2537.34591 505.589141,2537.86276 C508.533261,2538.65163 510.748273,2537.70304 511.369054,2535.38625 C511.847257,2533.60157 511.465822,2532.09009 508.103271,2529.64774 C503.625877,2526.57424 501.919122,2523.2931 502.901229,2519.62783 C504.12966,2515.04326 508.755766,2512.85117 514.151103,2514.29685 Z M741.125526,2505.96143 L748.504269,2518.77408 L740.352308,2523.44333 L739.553273,2522.05532 L745.756608,2518.50179 L743.424733,2514.45278 L737.556819,2517.81323 L736.769391,2516.44533 L742.6368,2513.084 L739.976118,2508.46446 L733.436673,2512.21088 L732.638328,2510.82306 L741.125526,2505.96143 Z M753.763222,2499.60448 L754.069867,2501.2715 C752.935056,2501.31568 751.441566,2501.66587 750.099209,2502.43506 C748.108553,2503.57505 747.459106,2505.13419 748.203064,2506.42478 C748.891907,2507.62091 750.090349,2507.84317 752.508335,2507.34153 C755.395381,2506.67266 757.538947,2506.88402 758.578536,2508.68766 C759.725919,2510.68104 758.633596,2513.2762 755.70329,2514.95463 C754.159671,2515.83886 752.86677,2516.17565 752.010005,2516.23679 L751.770234,2514.58179 C752.393502,2514.52744 753.619393,2514.33059 754.982699,2513.5493 C757.041254,2512.37069 757.222633,2510.8787 756.719057,2510.00447 C756.030717,2508.80921 754.774976,2508.74573 752.300883,2509.25299 C749.269876,2509.87812 747.371566,2509.57754 746.289007,2507.69745 C745.151333,2505.72291 745.890236,2503.02862 749.446517,2500.99111 C750.900231,2500.15879 752.695621,2499.60986 753.763222,2499.60448 Z M657.596086,1971.43277 C693.648258,1981.09292 726.735886,1997.50934 755.938266,2020.22534 C784.144309,2042.16625 807.556658,2069.02904 825.526287,2100.06959 C826.023167,2100.92787 826.515193,2101.78815 827.002357,2102.6504 L846.862879,2091.21512 L848.304828,2093.70556 L828.405007,2105.16282 C844.741735,2134.7791 855.385989,2166.68645 860.0666,2200.09304 C865.191631,2236.67263 862.903529,2273.45703 853.265988,2309.42482 C843.628446,2345.39262 827.217801,2378.39289 804.489408,2407.50994 C783.237786,2434.73492 757.358735,2457.47126 727.528145,2475.13243 L738.376585,2493.87393 L735.883292,2495.30993 L725.044157,2476.58606 C724.884514,2476.67839 724.724761,2476.77058 724.564896,2476.86263 C693.482654,2494.75901 659.775571,2506.3167 624.377968,2511.21506 C587.730157,2516.28579 550.867218,2513.95901 514.815045,2504.29886 C478.762873,2494.63871 445.67596,2478.22248 416.473389,2455.50719 C389.765513,2434.73168 367.354979,2409.54308 349.794447,2380.57422 L331.829159,2390.9177 L330.387904,2388.42745 L348.3149,2378.10515 C347.834564,2377.29422 347.357986,2376.48038 346.885176,2375.66366 C328.914831,2344.62291 317.29409,2310.97097 312.344863,2275.64021 C307.219309,2239.05972 309.50741,2202.27532 319.144952,2166.30752 C328.782493,2130.33973 345.193138,2097.33945 367.922055,2068.22331 C389.8734,2040.1013 416.763609,2016.76681 447.846566,1998.87062 L448.643135,1998.4142 L437.456453,1979.0883 L439.950438,1977.65249 L451.149251,1996.99825 C481.311137,1980.16534 513.88613,1969.24286 548.033686,1964.51748 C584.681689,1959.44603 621.543913,1961.77262 657.596086,1971.43277 Z M658.623852,1974.77321 L651.991135,1999.5242 L652.082707,1999.54935 C654.040344,2000.09024 655.987995,2000.65353 657.925374,2001.23901 L660.301911,1993.47481 L661.424671,1993.81825 L659.047987,2001.5811 C661.429398,2002.3128 663.795143,2003.0781 666.144687,2003.87658 L668.786616,1996.20489 L669.897224,1996.58699 L667.255695,2004.25704 C669.608763,2005.06896 671.945426,2005.91425 674.265145,2006.79249 L677.170845,1999.23436 L678.266523,1999.65438 L675.362434,2007.21087 C677.6875,2008.10361 679.995379,2009.02955 682.285524,2009.98826 L685.441963,2002.55309 L686.523239,2003.01116 L683.367233,2010.44408 C685.39873,2011.30578 687.416135,2012.19334 689.419065,2013.10647 L695.98043,1999.04741 L698.570574,2000.25374 L692.010688,2014.30603 C694.010084,2015.24549 695.994704,2016.21061 697.964159,2017.20111 L701.615352,2010.05031 L702.662009,2010.58358 L699.012268,2017.73136 C701.231367,2018.86066 703.431018,2020.02228 705.610658,2021.2158 L709.497825,2014.21246 L710.524222,2014.78073 L706.638138,2021.7816 C708.814766,2022.98697 710.971233,2024.22425 713.106975,2025.49303 L717.225066,2018.65082 L718.231073,2019.25398 L714.11446,2026.0948 C716.24795,2027.37606 718.360542,2028.68887 720.451667,2030.03279 L724.794908,2023.35453 L725.778748,2023.99347 L721.437323,2030.66958 C723.287917,2031.87147 725.121519,2033.09782 726.937732,2034.34834 L735.785055,2021.73479 L738.12393,2023.3699 L729.279744,2035.98108 C731.083451,2037.25423 732.869547,2038.55147 734.637633,2039.87252 L739.41565,2033.54556 L740.3515,2034.24983 L735.573634,2040.57535 C737.56032,2042.07458 739.524012,2043.60401 741.464137,2045.16319 L746.452033,2039.01274 L747.362928,2039.74893 L742.375145,2045.89891 C744.30591,2047.46583 746.213065,2049.06237 748.096041,2050.6881 L753.290719,2044.72512 L754.173453,2045.49155 L748.978914,2051.45404 C750.854169,2053.08879 752.705159,2054.75266 754.531311,2056.4452 L759.923232,2050.672 L760.778551,2051.468 L755.385995,2057.24115 C756.997783,2058.74934 758.589987,2060.28002 760.162208,2061.83287 L771.032216,2050.98507 L773.047317,2052.99673 L762.176201,2063.84523 C763.727983,2065.41382 765.259694,2067.00436 766.770942,2068.61656 L772.54422,2063.2461 L773.339801,2064.0973 L767.565561,2069.46828 C769.258193,2071.29117 770.924819,2073.14142 772.564876,2075.01859 L778.518868,2069.85106 L779.283528,2070.72829 L773.327903,2075.89609 C774.954282,2077.77537 776.55418,2079.68134 778.127041,2081.61355 L784.254913,2076.66428 L784.986603,2077.56674 L778.857769,2082.51553 C780.418787,2084.45163 781.9528,2086.41379 783.459253,2088.4016 L789.750712,2083.67236 L790.448143,2084.59665 L784.157053,2089.32683 C785.483115,2091.09362 786.78751,2092.88045 788.069855,2094.68703 L800.636424,2085.90682 L802.266351,2088.22812 L789.697906,2097.00838 C790.954553,2098.8219 792.189225,2100.65484 793.401544,2102.5069 L799.980674,2098.24559 L800.610226,2099.21289 L794.030674,2103.47284 C795.38333,2105.56007 796.707715,2107.67135 798.003294,2109.80627 L804.708845,2105.78845 L805.303235,2106.77511 L798.598455,2110.79205 C799.301164,2111.96195 799.995256,2113.13889 800.680644,2114.32279 C801.245384,2115.2983 801.803063,2116.27656 802.35367,2117.25749 L809.166167,2113.49221 L809.723125,2114.49582 L802.912479,2118.25833 C804.126137,2120.44358 805.304824,2122.64198 806.44845,2124.85284 L813.34705,2121.34702 L813.868271,2122.36626 L806.972329,2125.87127 C807.983949,2127.84891 808.9676,2129.83642 809.923221,2131.8333 L823.682336,2125.43768 L824.876139,2127.99029 L811.125774,2134.38295 C812.060873,2136.39483 812.967716,2138.41596 813.846238,2140.44586 L820.867253,2137.47457 L821.312685,2138.51969 L814.295012,2141.48931 C815.278621,2143.79078 816.225919,2146.10337 817.136812,2148.4264 L824.199292,2145.7222 L824.606551,2146.77879 L817.547361,2149.4805 C818.450455,2151.81495 819.31687,2154.15981 820.146512,2156.51437 L827.233632,2154.084 L827.601568,2155.14825 L820.518662,2157.57829 C821.340437,2159.94498 822.125137,2162.32134 822.872668,2164.70664 L829.97177,2162.54349 L830.301041,2163.61561 L823.205264,2165.77646 C823.862582,2167.90792 824.490275,2170.04642 825.088277,2172.19145 L839.431767,2168.36374 L840.156354,2171.05701 L825.821977,2174.88238 C826.395573,2177.03431 826.939406,2179.19257 827.453409,2181.35666 L834.532213,2179.72858 L834.782511,2180.80719 L827.706809,2182.4344 C828.275958,2184.8799 828.807069,2187.33271 829.300045,2189.79211 L836.353835,2188.42847 L836.565347,2189.50799 L829.513999,2190.87215 C829.996917,2193.33911 830.441511,2195.81257 830.847682,2198.29181 L837.857236,2197.18888 L838.028502,2198.26483 L831.02145,2199.36755 C831.417259,2201.85315 831.774486,2204.34443 832.093031,2206.84066 L839.046687,2205.99325 L839.178987,2207.06389 L832.227307,2207.91179 C832.501775,2210.14126 832.745411,2212.37458 832.958146,2214.61123 L847.342331,2213.36384 L847.582988,2216.09155 L833.202071,2217.33829 C833.389327,2219.57321 833.545772,2221.81123 833.671337,2224.05183 L840.459856,2223.70028 L840.515733,2224.75157 L833.727922,2225.10208 C833.858624,2227.62939 833.950051,2230.15987 834.002104,2232.69277 L840.682055,2232.57891 L840.700242,2233.61537 L834.021195,2233.72866 C834.062528,2236.26316 834.064443,2238.79997 834.026842,2241.33835 L840.565199,2241.45829 L840.547954,2242.47488 L834.009662,2242.35543 C833.961429,2244.89814 833.873543,2247.44232 833.745904,2249.98721 L840.113841,2250.32393 L840.063011,2251.31589 L833.694138,2250.97922 C833.570784,2253.25466 833.415643,2255.5306 833.228644,2257.80648 L846.968426,2259.01543 L846.739653,2261.63804 L832.998996,2260.42962 C832.787865,2262.70151 832.544957,2264.97315 832.270201,2267.244 L838.154503,2267.96824 L838.041422,2268.89011 L832.157046,2268.16474 C831.837716,2270.72353 831.477928,2273.28122 831.07758,2275.83704 L836.623197,2276.71544 L836.485956,2277.58699 L830.939572,2276.70798 C830.528499,2279.27278 830.076555,2281.8356 829.583638,2284.39567 L834.671497,2285.38572 L834.514894,2286.19099 L829.427256,2285.20076 C828.922362,2287.77752 828.375928,2290.35141 827.787849,2292.92163 L832.258207,2293.95363 L832.093165,2294.66925 L827.623108,2293.63685 C827.115264,2295.82703 826.577157,2298.01449 826.008722,2300.19875 L847.482987,2305.95322 L846.67116,2308.983 L825.198135,2303.2292 L825.022354,2303.87549 C824.481138,2305.83403 823.917335,2307.78252 823.331167,2309.72068 L827.701181,2311.05703 L827.485886,2311.75919 L823.117187,2310.42449 C822.346455,2312.94631 821.537806,2315.45053 820.691727,2317.93652 L825.559411,2319.61097 L825.292459,2320.38648 L820.42624,2318.71241 C819.57795,2321.17838 818.692768,2323.62628 817.771172,2326.05549 L822.962191,2328.0477 L822.645454,2328.87048 L817.456824,2326.87967 C816.530622,2329.29518 815.568343,2331.69207 814.57046,2334.06974 L819.967311,2336.3591 L819.604328,2337.21376 L814.209485,2334.92535 C813.315581,2337.03308 812.393633,2339.12559 811.443974,2341.20244 L823.869495,2346.99014 L822.756129,2349.37645 L810.335861,2343.59199 C809.364249,2345.65819 808.365013,2347.70854 807.338487,2349.74262 L812.926666,2352.5883 L812.474999,2353.47372 L806.888713,2350.62939 C805.730699,2352.9011 804.538547,2355.15233 803.31272,2357.38249 L808.926134,2360.48826 L808.432777,2361.37727 L802.821432,2358.27191 C801.588455,2360.49319 800.321964,2362.69337 799.022424,2364.87185 L804.627071,2368.23627 L804.092506,2369.12462 L798.489245,2365.76134 C797.181361,2367.9328 795.840523,2370.0825 794.467195,2372.20983 L800.037904,2375.82165 L799.464461,2376.70432 L793.894067,2373.09343 C792.667172,2374.97604 791.414734,2376.84096 790.137075,2378.68778 L801.825677,2386.85958 L800.253411,2389.10151 L788.566294,2380.93124 C787.267049,2382.76487 785.942671,2384.58018 784.593486,2386.37676 L790.034925,2390.47132 L789.3842,2391.33289 L783.94433,2387.23721 C782.422397,2389.24526 780.869329,2391.22967 779.285585,2393.18984 L784.639193,2397.5166 L783.952714,2398.3634 L778.59802,2394.03693 C777.00873,2395.98605 775.388955,2397.91094 773.739152,2399.81101 L778.991675,2404.36842 L778.269361,2405.19772 L773.016549,2400.63945 C771.361294,2402.52854 769.676195,2404.39282 767.961704,2406.23171 L773.100031,2411.01299 L772.343977,2411.82192 L767.203931,2407.04078 C765.67724,2408.66342 764.127528,2410.26606 762.55511,2411.84829 L772.876445,2422.15043 L770.902294,2424.12058 L760.578124,2413.81508 C758.989202,2415.37791 757.377772,2416.92023 755.744147,2418.44161 L760.619546,2423.66128 L759.799316,2424.42401 L754.922338,2419.20346 C753.082655,2420.90114 751.215144,2422.57244 749.320246,2424.21677 L754.050575,2429.64415 L753.199481,2430.38311 L748.467947,2424.95297 C746.571631,2426.5834 744.648187,2428.18699 742.698053,2429.76315 L747.270328,2435.3949 L746.389377,2436.10627 L741.816771,2430.47211 C739.866454,2432.03375 737.889725,2433.5681 735.887015,2435.0746 L740.291507,2440.9036 L739.382984,2441.58665 L734.977938,2435.7552 C733.199658,2437.08021 731.401103,2438.38337 729.582574,2439.6643 L738.106922,2451.80897 L735.796754,2453.42269 L727.269582,2441.27409 C725.443737,2442.52964 723.598247,2443.76303 721.733407,2444.97386 L725.764479,2451.16577 L724.803315,2451.78848 L720.770638,2445.59586 C718.674136,2446.94358 716.553413,2448.26292 714.408882,2449.55333 L718.239529,2455.91179 L717.254734,2456.5023 L713.422021,2450.1441 C712.350722,2450.78212 711.273537,2451.41296 710.190518,2452.03654 C709.107985,2452.65985 708.022071,2453.2745 706.93286,2453.88048 L710.550485,2460.38889 L709.542396,2460.94617 L705.924325,2454.43858 C703.733599,2455.6444 701.529686,2456.81525 699.313257,2457.95106 L702.707201,2464.59356 L701.678295,2465.11651 L698.282948,2458.47607 C696.302948,2459.47928 694.313077,2460.45461 692.313811,2461.402 L698.64547,2474.94095 L696.073951,2476.13647 L689.743115,2462.60241 C687.72859,2463.52924 685.704807,2464.42791 683.672248,2465.29834 L686.597922,2472.16665 L685.530302,2472.6187 L682.607559,2465.75136 C680.305561,2466.72455 677.992446,2467.66162 675.66891,2468.56248 L678.352255,2475.52677 L677.267733,2475.94116 L674.585785,2468.97951 C672.253285,2469.87131 669.910421,2470.72671 667.557893,2471.5456 L669.993889,2478.59499 L668.893732,2478.97253 L666.458338,2471.92545 C664.096587,2472.73512 661.725232,2473.50807 659.344979,2474.24423 L661.53215,2481.37069 L660.417031,2481.70924 L658.230677,2474.58598 C656.109876,2475.23092 653.982116,2475.8467 651.847893,2476.43325 L655.725705,2490.84478 L652.974228,2491.57851 L649.099066,2477.17163 C646.957541,2477.7336 644.809755,2478.26627 642.65621,2478.76958 L644.337774,2486.02274 L643.199057,2486.28443 L641.517911,2479.03275 C639.086218,2479.58885 636.647307,2480.10757 634.201895,2480.58881 L635.629606,2487.89658 L634.481278,2488.11878 L633.053162,2480.81202 C630.60417,2481.28182 628.148782,2481.71408 625.687715,2482.10869 L626.858023,2489.46384 L625.702389,2489.64631 L624.531978,2482.29118 C622.06817,2482.67416 619.598791,2483.01947 617.12456,2483.32699 L618.039091,2490.72434 L616.875615,2490.86681 L615.96187,2483.46868 C613.762609,2483.73136 611.559609,2483.96421 609.353372,2484.16717 L610.667023,2499.04155 L607.82412,2499.28747 L606.510895,2484.41198 C604.307368,2484.58884 602.100836,2484.73593 599.891801,2484.85318 L600.28913,2492.31792 L599.118656,2492.37819 L598.720771,2484.91253 C596.232671,2485.03267 593.74151,2485.11497 591.248001,2485.15935 L591.384278,2492.64903 L590.210627,2492.66887 L590.075063,2485.17742 C587.584251,2485.20986 585.091209,2485.20445 582.596649,2485.16111 L582.470724,2492.66792 L581.297058,2492.64668 L581.422843,2485.13792 C578.934303,2485.08283 576.444364,2484.98998 573.953731,2484.85929 L573.56446,2492.37669 L572.390868,2492.31434 L572.780643,2484.79494 C570.573136,2484.66858 568.365171,2484.51249 566.157241,2484.32659 L564.854317,2499.28198 L562.009588,2499.0313 L563.313896,2484.07072 C561.116407,2483.86022 558.919161,2483.62017 556.722641,2483.3505 L555.802603,2490.86093 L554.636967,2490.71765 L555.557331,2483.20465 C553.089477,2482.88987 550.622648,2482.53768 548.157533,2482.148 L546.972673,2489.63873 L545.813624,2489.45531 L546.999516,2481.96217 C544.544487,2481.56229 542.091265,2481.1252 539.64053,2480.6508 L538.191338,2488.10909 L537.03849,2487.8847 L538.487523,2480.42482 C536.0489,2479.94096 533.612846,2479.42012 531.180031,2478.86222 L529.469434,2486.27432 L528.326021,2486.01054 L530.03615,2478.59712 C528.029694,2478.1272 526.025515,2477.63205 524.023988,2477.1116 L517.377253,2501.9138 C552.470888,2511.07028 588.321799,2513.21277 623.965032,2508.28084 C658.981677,2503.4354 692.329104,2492.00004 723.079107,2474.29547 C753.828779,2456.58929 780.431415,2433.50615 802.14774,2405.68565 C824.630643,2376.88341 840.865265,2344.23651 850.399793,2308.65317 C859.93413,2273.07054 862.197983,2236.68019 857.128339,2200.49526 C852.231893,2165.54312 840.734902,2132.25122 822.957806,2101.54309 C805.180187,2070.83406 782.017766,2044.25846 754.115374,2022.55315 C725.713318,2000.4603 693.594178,1984.39027 658.623852,1974.77321 Z M548.441605,1967.44303 C513.424053,1972.28899 480.077725,1983.72312 449.326623,2001.42892 C418.577858,2019.13458 391.975031,2042.21843 370.258706,2070.03893 C348.152962,2098.35801 332.086931,2130.39364 322.49161,2165.28226 L344.530694,2171.18633 L343.718801,2174.21636 L321.676135,2168.3112 L321.656323,2168.38878 C312.416839,2203.55236 310.271051,2239.49113 315.278106,2275.22933 C320.174744,2310.18075 331.671735,2343.47265 349.447924,2374.1813 C367.226642,2404.88909 390.387964,2431.46593 418.291263,2453.17072 C446.69359,2475.26378 478.81238,2491.33372 513.783071,2500.95075 L520.429135,2476.1472 L520.280186,2476.10772 C518.326259,2475.56786 516.382281,2475.00567 514.448533,2474.42139 L512.223691,2481.68995 L511.100953,2481.34651 L513.324897,2474.07904 C510.931167,2473.34366 508.553265,2472.57434 506.191731,2471.7715 L503.718406,2478.95216 L502.607821,2478.57007 L505.081144,2471.39105 C502.714628,2470.57419 500.364709,2469.72359 498.031933,2468.83966 L495.312312,2475.91977 L494.216834,2475.49909 L496.935423,2468.42123 C494.598806,2467.5233 492.279556,2466.59185 489.97823,2465.62729 L487.018179,2472.59473 L485.936903,2472.13666 L488.89676,2465.17102 C486.850942,2464.30221 484.819427,2463.40716 482.802607,2462.48618 L476.44824,2476.10145 L473.858777,2474.89531 L480.211027,2461.28466 C478.203024,2460.33962 476.209943,2459.36868 474.232181,2458.37213 L470.80536,2465.08861 L469.758505,2464.55599 L473.184917,2457.84132 C470.955949,2456.70489 468.746633,2455.53583 466.55754,2454.33458 L462.90313,2460.91868 L461.876085,2460.35024 L465.529402,2453.7672 C463.342746,2452.55369 461.176475,2451.30794 459.031164,2450.03039 L455.152466,2456.47638 L454.145988,2455.87239 L458.023755,2449.42721 C455.881088,2448.13733 453.759548,2446.8156 451.659712,2445.46247 L447.559475,2451.76427 L446.57528,2451.12666 L450.675952,2444.8252 C448.815192,2443.6135 446.971656,2442.37704 445.145751,2441.11612 L436.539539,2453.38815 L434.200645,2451.75303 L442.808109,2439.48163 C440.996954,2438.1995 439.203611,2436.89303 437.428486,2435.56253 L432.895895,2441.56592 L431.959547,2440.8608 L436.492573,2434.85754 C434.499257,2433.34856 432.52917,2431.80913 430.582894,2430.23969 L425.83815,2436.08833 L424.92842,2435.35316 L429.673714,2429.50296 C427.73629,2427.92533 425.822732,2426.3178 423.93362,2424.68084 L418.977256,2430.37013 L418.093894,2429.60355 L423.0508,2423.91215 C421.170119,2422.26669 419.313954,2420.59188 417.482883,2418.88816 L412.318757,2424.41649 L411.462955,2423.61965 L416.629906,2418.09071 C415.013525,2416.57234 413.416938,2415.03129 411.840547,2413.46789 L401.182107,2424.10726 L399.166985,2422.09558 L409.830146,2411.45082 C408.273957,2409.87126 406.738062,2408.26957 405.222863,2406.64604 L399.648621,2411.8328 L398.852187,2410.98206 L404.430125,2405.79258 C402.734904,2403.95886 401.065926,2402.0976 399.423762,2400.20926 L393.649774,2405.21669 L392.885632,2404.34033 L398.663424,2399.33077 C397.034106,2397.43932 395.43154,2395.52099 393.856292,2393.57622 L387.886191,2398.39862 L387.15452,2397.49619 L393.127267,2392.67186 C391.564998,2390.72455 390.029975,2388.75101 388.522759,2386.75168 L382.3638,2391.38172 L381.665229,2390.45642 L387.826707,2385.82389 C386.501769,2384.04923 385.198634,2382.25447 383.917688,2380.43989 L371.449616,2389.14997 L369.820365,2386.82884 L382.29561,2378.11425 C381.037049,2376.28787 379.800721,2374.44191 378.587009,2372.57667 L372.073424,2376.79539 L371.443853,2375.82807 L377.959534,2371.60751 C376.608301,2369.50997 375.285548,2367.38829 373.991816,2365.24286 L367.315921,2369.24311 L366.722194,2368.25664 L373.399116,2364.25491 C372.820739,2363.28585 372.248259,2362.31199 371.681725,2361.33338 C370.993968,2360.14539 370.316684,2358.95333 369.649888,2357.75733 L362.825379,2361.52948 L362.267785,2360.52571 L369.093219,2356.75351 C367.882152,2354.55796 366.706313,2352.34924 365.565793,2350.12803 L358.60666,2353.66493 L358.085606,2352.64503 L365.045305,2349.10867 C364.038462,2347.12567 363.059684,2345.13283 362.109032,2343.13064 L348.247487,2349.57542 L347.053864,2347.02212 L360.914529,2340.57786 C359.981079,2338.55334 359.07619,2336.51953 358.199926,2334.47692 L351.009534,2337.51862 L350.564441,2336.4722 L357.754118,2333.43113 C356.775578,2331.12103 355.83356,2328.79982 354.928155,2326.46819 L347.637194,2329.25872 L347.229781,2328.20282 L354.5213,2325.41331 C353.623678,2323.07006 352.762952,2320.71642 351.939215,2318.35312 L344.556842,2320.88466 L344.188924,2319.82046 L351.570777,2317.28825 C349.907972,2312.44655 348.400099,2307.5648 347.047965,2302.64912 L332.279526,2306.58974 L331.554939,2303.89648 L346.323436,2299.95518 C342.888471,2286.88689 340.549805,2273.58773 339.322496,2260.17144 L324.033852,2261.49887 L323.793193,2258.77113 L339.088357,2257.44304 C338.014225,2244.04286 338.047267,2230.53376 339.202436,2217.02871 L323.766849,2215.67267 L323.995804,2213.04931 L339.440825,2214.40668 C340.752644,2200.78486 343.207229,2187.17459 346.81993,2173.69181 C350.477379,2160.04202 355.228117,2146.87257 360.998207,2134.27966 L346.864848,2127.69916 L347.978613,2125.31381 L362.107683,2131.89204 C367.881059,2119.63924 374.626339,2107.94454 382.27421,2096.89811 L369.548932,2088.00495 L371.120504,2085.76289 L383.844986,2094.65633 C391.629391,2083.67829 400.314975,2073.35705 409.832043,2063.78332 L398.832487,2052.8061 L400.806638,2050.83595 L411.809112,2061.817 C421.346543,2052.4388 431.69464,2043.79974 442.785727,2035.98788 L433.816666,2023.21036 L436.126152,2021.59645 L445.098747,2034.37814 C450.613288,2030.58622 456.307021,2026.99654 462.171852,2023.61963 C468.035287,2020.24359 473.997907,2017.12158 480.046529,2014.25532 L473.435898,2000.1224 L476.007416,1998.92688 L482.616221,2013.05537 C489.898875,2009.70474 497.302538,2006.72229 504.804473,2004.11099 L502.169794,1996.482 L503.27058,1996.10463 L505.905031,2003.73081 C508.267118,2002.92106 510.638813,2002.14803 513.019409,2001.41181 L510.656796,1993.71185 L511.772092,1993.37265 L514.133714,2001.07008 C516.252866,2000.42568 518.378968,1999.81039 520.511522,1999.22428 L516.483265,1984.25467 L519.234239,1983.52007 L523.261357,1998.48562 C525.404548,1997.92321 527.554009,1997.39014 529.70924,1996.88649 L527.899282,1989.07423 L529.037322,1988.81236 L530.847546,1996.62334 C533.280244,1996.06705 535.720167,1995.54818 538.166595,1995.06682 L536.631295,1987.20708 L537.779411,1986.98555 L539.314329,1994.84384 C541.764104,1994.37396 544.22028,1993.94164 546.682138,1993.54699 L545.425195,1985.64592 L546.581465,1985.46364 L547.838492,1993.36445 C550.303603,1992.98136 552.774289,1992.63599 555.249831,1992.32843 L554.268561,1984.38905 L555.431022,1984.24772 L556.4127,1992.18678 C558.608651,1991.92463 560.808329,1991.6922 563.011234,1991.48957 L561.652164,1976.08776 L564.494382,1975.84166 L565.854725,1991.24472 C568.061187,1991.06766 570.270662,1990.92045 572.482646,1990.80316 L572.059477,1982.80983 L573.231251,1982.74992 L573.654485,1990.74383 C576.14406,1990.62375 578.6367,1990.54156 581.131689,1990.49734 L580.987603,1982.48417 L582.160574,1982.46415 L582.304637,1990.47935 C584.79638,1990.44708 587.290352,1990.45268 589.785841,1990.49624 L589.920983,1982.47131 L591.094625,1982.49255 L590.95889,1990.51951 C593.449369,1990.57485 595.941248,1990.66799 598.433818,1990.79904 L598.850351,1982.76693 L600.023935,1982.82927 L599.606307,1990.86348 C601.8111,1990.9899 604.016346,1991.14598 606.221557,1991.3318 L607.567705,1975.87335 L610.412619,1976.12334 L609.065622,1991.58793 C611.267183,1991.79897 613.468499,1992.03967 615.669083,1992.3101 L616.652238,1984.29495 L617.817649,1984.43888 L616.834792,1992.45614 C619.303715,1992.77136 621.771609,1993.12401 624.237783,1993.51419 L625.502676,1985.52279 L626.662188,1985.70705 L625.397488,1993.70046 C627.853476,1994.10084 630.307652,1994.53847 632.759336,1995.01343 L634.306244,1987.05686 L635.459084,1987.28125 L633.912351,1995.23959 C636.352656,1995.72417 638.790383,1996.24577 641.224862,1996.80449 L643.050437,1988.89633 L644.194335,1989.16094 L642.368726,1997.06979 C644.381212,1997.54148 646.391406,1998.03856 648.398925,1998.56109 L655.030669,1973.8104 C619.93642,1964.65349 584.085516,1962.51101 548.441605,1967.44303 Z M464.39329,2027.45681 C408.126417,2059.85427 367.895862,2112.19456 351.111261,2174.83554 C334.32666,2237.47653 342.997198,2302.91982 375.527009,2359.11028 C408.056821,2415.30074 460.550419,2455.51108 523.339399,2472.33533 C586.127664,2489.1594 651.695049,2480.58341 707.960492,2448.18557 C764.227365,2415.78811 804.457919,2363.44782 821.242521,2300.80683 C838.027122,2238.16585 829.356584,2172.72255 796.826772,2116.53209 C764.297676,2060.34183 711.803554,2020.13059 649.015289,2003.30652 C586.227025,1986.48246 520.660163,1995.05935 464.39329,2027.45681 Z M646.912627,2010.29463 L628.929522,2136.40259 L628.920359,2136.47331 C646.452783,2143.97511 661.121511,2155.93004 671.924493,2170.60351 C672.159739,2170.91881 672.391982,2171.23675 672.621753,2171.55702 L673.114512,2171.38987 L735.140115,2150.3185 L731.820325,2153.21416 L731.643432,2153.3683 C732.379095,2154.64204 733.112759,2155.94264 733.813214,2157.24122 C734.301636,2158.135 733.972803,2159.25773 733.071842,2159.74423 C732.638902,2159.97818 732.151752,2160.02263 731.70704,2159.90347 C731.23686,2159.77748 730.810894,2159.46037 730.564527,2158.99541 C729.938592,2157.83381 729.283481,2156.6714 728.622676,2155.53546 L728.803135,2155.8492 L728.739874,2155.90578 L685.658237,2193.49305 L685.475723,2193.65345 C692.264089,2209.93172 695.04332,2227.97545 692.919329,2246.2564 C692.899321,2246.42736 692.878898,2246.59821 692.85806,2246.76899 L693.303132,2246.94741 L747.704135,2268.7632 L747.784387,2268.34174 C747.900073,2267.76922 748.006668,2267.19426 748.109575,2266.62251 L748.261847,2265.76799 C748.443049,2264.7486 749.409556,2264.07401 750.430053,2264.24844 C751.442844,2264.42787 752.12421,2265.39549 751.951374,2266.41005 C751.752017,2267.52358 751.543184,2268.64873 751.321603,2269.76339 C751.29492,2269.90375 751.268238,2270.04411 751.241175,2270.18436 L751.670063,2270.35717 L812.307563,2294.67262 L747.959974,2285.46165 L747.330135,2285.3712 L747.282139,2285.53377 C747.020346,2286.41486 746.135224,2286.94077 745.251616,2286.78169 L745.10447,2286.74878 L745.053831,2286.73521 C744.2259,2286.48313 743.708126,2285.6926 743.778864,2284.86372 L685.457312,2276.51438 L684.872504,2276.43141 C677.302706,2294.07971 665.236454,2308.84041 650.414895,2319.72004 C650.379109,2319.74674 650.343292,2319.77339 650.307445,2319.80001 L650.542703,2320.4882 L671.103633,2380.58404 L671.569047,2381.93549 L672.414422,2384.41397 L671.198724,2383.03159 L670.614135,2382.3642 L670.542621,2382.47512 C670.424454,2382.64479 670.275128,2382.79717 670.097329,2382.92222 L669.958683,2383.01074 C668.668537,2383.75561 667.354049,2384.48696 666.0483,2385.1857 C665.615224,2385.4192 665.134526,2385.46516 664.690998,2385.34632 C664.222032,2385.22066 663.795747,2384.90441 663.543327,2384.4376 C663.057061,2383.53902 663.399373,2382.42064 664.296205,2381.94089 C665.5641,2381.25298 666.845507,2380.54073 668.102572,2379.81496 L668.102572,2379.81496 L668.177004,2379.77199 C668.21644,2379.75173 668.256321,2379.73304 668.296572,2379.71587 L627.643684,2333.33972 L626.839135,2332.4222 L626.414013,2332.59959 C610.578377,2339.0912 593.048456,2341.75708 575.277047,2339.76574 L574.695135,2339.6972 L574.346246,2340.56769 L526.504596,2459.66352 L544.623369,2332.53451 L544.726301,2331.8165 C544.374053,2331.66904 544.023061,2331.51971 543.672416,2331.36826 C527.006841,2324.17907 512.949507,2312.95694 502.36869,2299.20169 L502.609135,2299.5112 L502.339324,2299.60361 L443.532947,2319.58444 L443.423989,2319.62129 C443.711589,2320.4429 443.38538,2321.37294 442.60267,2321.82435 C442.155552,2322.0825 441.652944,2322.1298 441.195829,2322.00732 C440.739368,2321.88501 440.327094,2321.59256 440.07548,2321.1472 C440.012176,2321.04085 439.949857,2320.93393 439.887916,2320.82657 L439.629097,2320.91374 L437.767753,2321.54059 L439.24916,2320.24415 L439.452268,2320.06763 C439.363742,2319.91388 439.274015,2319.75673 439.188068,2319.60059 C438.746811,2318.81815 438.30573,2318.03505 437.885988,2317.25067 C437.399496,2316.34972 437.734856,2315.22874 438.635807,2314.74225 C439.533702,2314.26194 440.655332,2314.59747 441.143096,2315.49107 C441.433138,2316.03072 441.734934,2316.57352 442.037383,2317.1165 C442.123863,2317.27341 442.210843,2317.43006 442.298227,2317.58641 L442.368309,2317.52536 L488.933211,2276.887 L489.171135,2276.6782 L488.940199,2276.15474 C481.739291,2259.60427 478.713886,2241.14647 480.817521,2222.43194 L480.900135,2221.7192 L480.834285,2221.6927 L361.880613,2173.98109 L488.788135,2192.1452 L489.01569,2191.61227 C496.188711,2175.02461 507.330829,2160.99584 521.006519,2150.36671 L521.70407,2149.82918 C521.738519,2149.80266 521.772991,2149.77616 521.807487,2149.74969 L503.334043,2095.746 L503.116156,2095.11304 C502.780317,2095.21801 502.425625,2095.22044 502.094232,2095.13165 C501.638308,2095.00948 501.228268,2094.71086 500.975203,2094.27254 C500.46255,2093.39415 500.764903,2092.26575 501.649816,2091.75485 C501.774521,2091.6834 501.889652,2091.61638 502.011958,2091.55128 L501.914135,2091.6052 L500.493447,2087.44511 L503.399135,2090.7602 L503.45575,2090.72873 C503.917717,2090.46569 504.383928,2090.21 504.849815,2089.9563 L505.547831,2089.57656 C506.446416,2089.09029 507.572595,2089.427 508.052167,2090.32449 C508.540661,2091.21738 508.211566,2092.33861 507.312328,2092.8247 C506.855535,2093.06583 506.39655,2093.32035 505.945184,2093.56992 C505.926152,2093.58039 505.907122,2093.59088 505.888094,2093.60137 L506.320521,2094.09427 L543.583135,2136.6062 L543.90661,2136.46184 C560.333167,2129.22352 578.7001,2126.14924 597.34605,2128.18694 L598.248484,2128.28953 C598.651783,2128.33644 599.054458,2128.38567 599.456985,2128.43736 L620.194195,2076.80891 L621.295922,2074.06983 L646.912627,2010.29463 Z M640.488339,2034.13484 L602.408023,2128.93367 L600.011964,2134.90237 L596.426016,2143.82504 L595.905376,2145.1105 L582.369353,2178.81585 L580.573359,2183.29132 L577.391829,2179.66553 L552.673186,2151.46099 L551.739694,2150.39879 L545.31495,2143.06863 L541.031468,2138.18305 L508.133731,2100.64683 L524.347894,2148.03887 L526.465272,2154.22943 L529.646699,2163.51672 L530.105078,2164.86531 L541.545812,2198.30693 L543.109561,2202.87822 L538.327641,2202.19447 L504.941664,2197.41634 L503.570741,2197.21755 L494.029775,2195.85618 L487.647687,2194.94285 L385.853324,2180.3684 L423.200717,2195.34839 L423.253135,2195.3692 L423.23917,2195.32574 L424.329776,2195.76415 C424.316048,2195.77246 424.302065,2195.78034 424.28785,2195.78776 L426.230686,2196.56631 L481.239681,2218.62912 L481.313135,2218.6582 L481.331532,2218.53378 L487.248595,2220.90797 C487.242679,2220.95024 487.236802,2220.99252 487.230964,2221.0348 L496.147984,2224.60801 L496.238135,2224.6432 L496.254663,2224.48821 L497.523252,2224.99499 C497.517484,2225.04689 497.51179,2225.09881 497.506169,2225.15076 L530.797728,2238.5051 L535.2873,2240.30564 L531.647405,2243.48262 L503.519346,2268.03023 L502.459775,2268.95677 L495.101021,2275.37385 L490.200426,2279.65331 L451.003521,2313.85968 L500.467709,2297.06002 L500.704135,2296.9782 L500.550708,2296.76855 L506.613406,2294.70385 C506.665585,2294.7733 506.717882,2294.84273 506.770295,2294.91213 L515.97694,2291.78418 L516.217135,2291.7032 L516.050253,2291.49874 L517.347887,2291.06435 C517.403426,2291.13272 517.459094,2291.201 517.514889,2291.26921 L550.74206,2279.9787 L555.303094,2278.42752 L554.623367,2283.19443 L549.890705,2316.38498 L549.697961,2317.75906 L548.342337,2327.27858 L547.432842,2333.64637 L538.681962,2395.01091 L538.117563,2399.00431 L532.879245,2435.73744 L571.300441,2340.0953 L571.624135,2339.2882 L571.404257,2339.25714 L573.743616,2333.43131 C573.817216,2333.44107 573.890828,2333.45079 573.964451,2333.46046 L577.271469,2325.21631 L577.628135,2324.3362 L577.365416,2324.30967 L577.86489,2323.07881 C577.951516,2323.08844 578.038145,2323.09786 578.124775,2323.10705 L590.313354,2292.75754 L592.107433,2288.28922 L595.281101,2291.9129 L618.728287,2318.65823 L619.659863,2319.72758 L626.15141,2327.12008 L630.475683,2332.05643 L664.724583,2371.12607 L647.995318,2322.22544 L645.889093,2316.07617 L642.730905,2306.84798 L642.275843,2305.5156 L630.09056,2269.90635 L628.526811,2265.33505 L633.308207,2266.0179 L668.761135,2271.0962 L668.849619,2270.90168 L670.196644,2271.08817 C670.167477,2271.15477 670.138245,2271.2213 670.108945,2271.28778 L670.671183,2271.36446 L679.737135,2272.6622 L679.806376,2272.49607 L686.117471,2273.39835 C686.095603,2273.45459 686.073664,2273.51079 686.051659,2273.56695 L686.570163,2273.64037 L744.586135,2281.9422 L744.613244,2281.84713 L748.193927,2282.35881 C748.185338,2282.39087 748.176721,2282.42292 748.168079,2282.45496 L748.731059,2282.53568 L788.285082,2288.19966 L750.203817,2272.92497 L747.532844,2271.85687 L692.862079,2249.92988 L686.879081,2247.52999 L677.933239,2243.94473 L676.648311,2243.425 L644.971648,2230.72368 L640.482076,2228.92314 L644.121256,2225.74597 L670.835135,2202.4372 L670.746839,2202.2077 L671.800247,2201.28947 C671.830703,2201.36597 671.861003,2201.44253 671.891153,2201.51913 L672.068456,2201.36441 L679.338135,2195.0102 L679.25173,2194.80867 L684.128273,2190.55817 C684.158749,2190.62507 684.189143,2190.69199 684.219454,2190.75893 L684.377437,2190.61988 L721.854794,2157.91322 L674.867278,2173.8757 L668.71469,2175.96571 L659.476745,2179.10597 L658.137217,2179.55911 L622.359026,2191.71445 L617.800623,2193.25867 L618.479635,2188.49157 L623.608135,2152.5092 L623.464693,2152.44455 L623.656937,2151.11938 C623.705154,2151.1405 623.753337,2151.16167 623.801486,2151.1829 L623.814331,2151.08711 L625.166124,2141.58188 L625.173135,2141.5232 L625.056873,2141.47497 L625.942851,2135.25957 C625.982306,2135.27492 626.021742,2135.29028 626.061158,2135.30567 L626.071788,2135.22839 L633.882905,2080.43038 L633.973135,2079.7912 L633.934493,2079.7996 L634.382653,2076.65933 C634.395017,2076.66524 634.407283,2076.67129 634.419449,2076.67747 L634.424183,2076.63763 L640.488339,2034.13484 Z M325.715542,2407.85412 C326.545083,2409.29594 327.094499,2411.07751 327.100574,2412.13524 L325.441146,2412.43668 C325.396025,2411.31132 325.046575,2409.83105 324.279741,2408.49985 C323.141662,2406.52464 321.590028,2405.87948 320.305879,2406.61568 C319.11642,2407.29664 318.896202,2408.48502 319.398504,2410.88279 C320.06747,2413.74444 319.85981,2415.87062 318.065217,2416.89806 C316.082662,2418.03344 313.498687,2416.94677 311.825222,2414.04023 C310.942755,2412.50875 310.606293,2411.22618 310.54415,2410.37769 L312.191643,2410.14267 C312.246173,2410.75972 312.44313,2411.97487 313.222296,2413.32843 C314.397735,2415.36936 315.883848,2415.55062 316.753058,2415.05283 C317.942518,2414.37187 318.003472,2413.12689 317.494899,2410.67321 C316.86938,2407.66856 317.166855,2405.78704 319.036012,2404.71655 C321.000359,2403.59169 323.684532,2404.3263 325.715542,2407.85412 Z M313.3451,2386.64713 L314.527409,2388.70004 L308.89245,2394.47734 C307.515209,2395.89658 306.42994,2396.93804 305.240744,2397.88907 L305.266699,2397.93402 C306.709097,2397.46736 308.170917,2397.08116 310.166042,2396.68734 L318.152199,2394.99363 L319.333998,2397.04565 L308.615845,2408.3152 L307.420119,2406.24007 L312.927735,2400.68496 C314.281186,2399.31002 315.659711,2397.98054 316.751543,2396.99523 L316.725588,2396.95027 C315.296099,2397.43828 313.487564,2397.84483 311.51858,2398.28291 L303.821979,2399.99162 L302.640366,2397.9389 L308.140537,2392.32815 C309.429142,2391.02003 310.73186,2389.73432 311.964934,2388.72799 L311.938793,2388.68373 C310.336828,2389.1814 308.650515,2389.57675 306.763206,2390.02702 L299.080717,2391.75814 L297.924873,2389.75107 L313.3451,2386.64713 Z M581.376453,2401.66217 C582.773428,2401.70122 584.182481,2401.72273 585.569528,2401.72626 C586.548465,2401.72639 587.342719,2402.51587 587.341964,2403.49464 C587.34121,2404.47341 586.54548,2405.26598 585.56671,2405.26523 C584.146539,2405.26019 582.70302,2405.24219 581.280396,2405.19627 C581.134379,2405.19067 580.998598,2405.1744 580.866594,2405.13903 C580.090835,2404.93117 579.532637,2404.21165 579.555545,2403.37292 C579.581949,2402.40102 580.399351,2401.62766 581.376453,2401.66217 Z M599.986536,2401.11848 C600.970362,2401.03724 601.84564,2401.76568 601.927507,2402.74967 C602.01739,2403.72904 601.290019,2404.59783 600.30433,2404.68602 C598.868805,2404.8095 597.417703,2404.91526 595.979698,2404.99742 C595.779276,2405.01215 595.589355,2404.98768 595.41236,2404.94026 C594.68542,2404.74547 594.131,2404.10911 594.085408,2403.31844 C594.024367,2402.33257 594.779956,2401.4849 595.763498,2401.43001 C597.168203,2401.34569 598.591095,2401.2466 599.986536,2401.11848 Z M566.877159,2400.62569 L567.01998,2400.63638 C568.379392,2400.80199 569.764997,2400.9415 571.137233,2401.06419 C572.094009,2401.14839 572.81404,2401.99753 572.728179,2402.96048 C572.643191,2403.91771 571.796494,2404.63111 570.832922,2404.54509 C569.429376,2404.42063 568.006085,2404.27102 566.612471,2404.10949 C566.528846,2404.10033 566.446875,2404.08499 566.361,2404.06198 C565.539318,2403.84181 564.978548,2403.04329 565.07967,2402.16918 C565.191026,2401.2124 566.063029,2400.52564 567.01998,2400.63638 Z M614.258278,2399.26853 C615.241039,2399.09454 616.179441,2399.74914 616.353432,2400.7319 C616.527252,2401.7153 615.874999,2402.6475 614.891133,2402.82051 C613.47057,2403.07535 612.020908,2403.30873 610.584455,2403.51832 C610.336158,2403.55497 610.087206,2403.53541 609.851953,2403.47237 C609.182535,2403.293 608.642824,2402.73157 608.534059,2401.99246 C608.386812,2401.00935 609.069872,2400.09224 610.05838,2399.9478 C611.45971,2399.74179 612.867703,2399.51091 614.258278,2399.26853 Z M550.760433,2399.7146 C550.950243,2398.78716 551.860207,2398.19029 552.793738,2398.38173 C554.123403,2398.65258 555.467728,2398.91496 556.801537,2399.14843 C557.73996,2399.32162 558.363843,2400.20621 558.196743,2401.14626 C558.031273,2402.08023 557.139573,2402.70873 556.198911,2402.54147 C554.835122,2402.30061 553.458904,2402.03556 552.09939,2401.74954 C552.06855,2401.7478 552.031431,2401.73785 552.001005,2401.7297 C551.124745,2401.49491 550.570896,2400.61669 550.760433,2399.7146 Z M628.307647,2396.18052 C629.277853,2395.92433 630.272927,2396.49996 630.537091,2397.46611 C630.799878,2398.43739 630.223599,2399.4323 629.253393,2399.68849 C627.84395,2400.06855 626.411966,2400.42744 624.994398,2400.76334 C624.685139,2400.83877 624.385404,2400.82727 624.102875,2400.75157 C623.480027,2400.58468 622.959489,2400.08733 622.801423,2399.4187 C622.567933,2398.44082 623.166456,2397.46564 624.144343,2397.23215 C625.533255,2396.90302 626.929395,2396.54692 628.307647,2396.18052 Z M642.031423,2391.88452 C642.981443,2391.54356 644.036036,2392.02695 644.382815,2392.97853 C644.725983,2393.92291 644.236303,2394.97512 643.292744,2395.31782 C641.903481,2395.825 640.498298,2396.31407 639.108231,2396.77256 C638.7591,2396.88675 638.397817,2396.89381 638.061209,2396.80362 C637.486198,2396.64955 636.998548,2396.22112 636.794619,2395.6125 C636.476326,2394.6554 636.996926,2393.61701 637.954673,2393.29889 C639.307888,2392.8513 640.681216,2392.37516 642.031423,2391.88452 Z M523.013073,2391.19902 C523.362891,2390.30941 524.377855,2389.87335 525.261354,2390.22153 C526.523197,2390.72353 527.809946,2391.20599 529.094468,2391.67473 C529.996144,2392.00156 530.45874,2392.99086 530.133388,2393.88703 C529.825625,2394.74202 528.922397,2395.20146 528.059969,2394.97037 C528.011037,2394.95726 527.962105,2394.94415 527.914648,2394.92553 C526.60093,2394.44831 525.284462,2393.95199 523.992036,2393.4418 C523.102421,2393.09198 522.664894,2392.08252 523.013073,2391.19902 Z M655.333738,2386.41907 C656.24934,2385.98925 657.346535,2386.38835 657.776523,2387.3033 C658.211091,2388.22714 657.814388,2389.31801 656.892117,2389.74673 C655.555941,2390.36941 654.18886,2390.97755 652.834143,2391.56811 C652.434435,2391.73246 652.00999,2391.75794 651.626192,2391.6551 C651.100824,2391.51433 650.643943,2391.14134 650.411589,2390.60578 C650.006478,2389.67591 650.435478,2388.59439 651.37201,2388.19037 C652.69444,2387.61899 654.030324,2387.02338 655.333738,2386.41907 Z M509.807221,2385.1656 C510.239539,2384.29665 511.298712,2383.94211 512.165996,2384.38063 C513.398404,2384.99013 514.651707,2385.59858 515.905455,2386.18055 C516.787256,2386.58971 517.173266,2387.63072 516.763648,2388.51173 C516.39986,2389.29863 515.525592,2389.68277 514.719067,2389.46667 C514.619802,2389.44007 514.5222,2389.40727 514.427923,2389.36206 C513.144816,2388.76557 511.854289,2388.14715 510.593565,2387.51676 C509.725693,2387.0854 509.370694,2386.02544 509.807221,2385.1656 Z M497.181613,2377.99247 C497.695439,2377.15457 498.787707,2376.89486 499.62561,2377.40868 C500.823067,2378.13996 502.041464,2378.86339 503.242107,2379.55515 C504.092848,2380.04617 504.386681,2381.13413 503.897964,2381.97876 C503.484086,2382.69475 502.65963,2383.01209 501.899431,2382.8084 C501.748144,2382.76786 501.609268,2382.71114 501.469498,2382.63264 C500.238521,2381.92603 498.991473,2381.18147 497.766621,2380.42939 C496.929346,2379.91574 496.669637,2378.82347 497.181613,2377.99247 Z M680.258434,2372.13492 C681.095161,2371.55223 682.253831,2371.75815 682.843245,2372.59597 C683.432483,2373.43446 683.228796,2374.58741 682.383944,2375.17424 C681.159483,2376.02561 679.914635,2376.87713 678.665733,2377.68617 C678.20588,2377.99096 677.660519,2378.06234 677.169536,2377.93078 C676.743363,2377.81659 676.358189,2377.552 676.100218,2377.15311 C675.535882,2376.30025 675.773879,2375.15017 676.63153,2374.59414 C677.841782,2373.79579 679.065597,2372.97301 680.258434,2372.13492 Z M485.231179,2369.72336 C485.818554,2368.92868 486.947913,2368.76919 487.742766,2369.35593 C488.876637,2370.1966 490.036934,2371.03756 491.200019,2371.84529 C492.012016,2372.41624 492.209836,2373.52937 491.638889,2374.34136 C491.196693,2374.97719 490.414358,2375.23647 489.702962,2375.04585 C489.507043,2374.99335 489.313278,2374.90746 489.14095,2374.78721 C487.951429,2373.95133 486.760495,2373.09536 485.59832,2372.23351 C484.806434,2371.64077 484.636569,2370.52222 485.231179,2369.72336 Z M691.696238,2363.4346 C692.483931,2362.78001 693.659572,2362.88388 694.315928,2363.66501 C694.97709,2364.45446 694.874973,2365.62354 694.086178,2366.28487 C692.943208,2367.23839 691.764544,2368.19642 690.594677,2369.12162 C690.113409,2369.49939 689.502193,2369.60306 688.957181,2369.45702 C688.582238,2369.35656 688.233056,2369.13631 687.974643,2368.81371 C687.340218,2368.00327 687.476926,2366.83643 688.280142,2366.20006 C689.430976,2365.29862 690.580662,2364.36731 691.696238,2363.4346 Z M474.043343,2360.4346 C474.709384,2359.68751 475.85079,2359.6234 476.5966,2360.2891 C477.665655,2361.23392 478.75658,2362.17639 479.846514,2363.09186 C480.61431,2363.7292 480.712263,2364.87214 480.068535,2365.63822 C479.604946,2366.19224 478.872805,2366.39341 478.214434,2366.217 C477.965148,2366.15021 477.730202,2366.03245 477.515785,2365.85853 C476.396677,2364.92153 475.277857,2363.9579 474.188373,2362.98705 C473.441924,2362.32118 473.378283,2361.18058 474.043343,2360.4346 Z M702.332624,2353.76892 C703.062955,2353.04731 704.241783,2353.04565 704.970155,2353.77709 C705.700291,2354.50194 705.701295,2355.68059 704.970517,2356.40914 C703.911162,2357.46596 702.817126,2358.52055 701.723563,2359.54703 C701.233041,2360.00832 700.565962,2360.15416 699.959621,2359.99169 C699.637688,2359.90543 699.333209,2359.72506 699.08458,2359.46792 C698.383673,2358.71562 698.416034,2357.53885 699.161929,2356.83552 C700.23527,2355.83184 701.294151,2354.80312 702.332624,2353.76892 Z M463.718696,2350.20813 C464.449591,2349.51414 465.604513,2349.55458 466.298508,2350.28547 C467.276525,2351.32079 468.286894,2352.36409 469.305415,2353.3744 C470.017927,2354.09025 470.012472,2355.24075 469.304044,2355.95387 C468.826426,2356.42602 468.149651,2356.58337 467.538885,2356.41971 C467.24219,2356.34021 466.960569,2356.18129 466.726938,2355.94624 C465.680941,2354.90719 464.648277,2353.84412 463.643081,2352.78151 C462.949086,2352.05061 462.983733,2350.89414 463.718696,2350.20813 Z M712.087425,2343.21521 C712.745926,2342.42289 713.924319,2342.32143 714.722308,2342.98781 C715.51238,2343.65207 715.615911,2344.82537 714.951955,2345.61693 C713.977555,2346.7701 712.976493,2347.92249 711.984365,2349.03626 C711.498145,2349.58412 710.760946,2349.77551 710.101185,2349.59873 C709.830683,2349.52625 709.571262,2349.38602 709.343373,2349.18353 C708.570304,2348.50332 708.5059,2347.31859 709.191427,2346.55472 C710.163111,2345.46447 711.135718,2344.3391 712.087425,2343.21521 Z M454.330362,2339.1195 C455.129322,2338.49407 456.278991,2338.62866 456.912637,2339.42289 C457.804042,2340.54982 458.72134,2341.6837 459.647958,2342.78538 C460.300842,2343.557 460.198437,2344.71599 459.422549,2345.36149 C458.946986,2345.76137 458.325457,2345.87999 457.768744,2345.73082 C457.41918,2345.63715 457.091068,2345.43753 456.839146,2345.13482 C455.886185,2344.00457 454.94711,2342.85098 454.027895,2341.69578 C453.402456,2340.89682 453.537228,2339.7465 454.330362,2339.1195 Z M720.871886,2331.84223 C721.467675,2330.99602 722.633894,2330.79142 723.482051,2331.37994 C724.328261,2331.97573 724.532866,2333.14195 723.946117,2333.98349 C723.077091,2335.21762 722.185711,2336.45851 721.281859,2337.66135 C720.808675,2338.2932 720.009931,2338.54598 719.290216,2338.35313 C719.07212,2338.29469 718.859635,2338.18888 718.658129,2338.04209 C717.831383,2337.42389 717.655822,2336.25767 718.276276,2335.42515 C719.156557,2334.25212 720.02688,2333.03959 720.871886,2331.84223 Z M615.846135,2319.8772 L615.313103,2320.06357 C604.272227,2323.85489 592.394225,2325.48183 580.331983,2324.58081 L580.752135,2324.6092 L580.376125,2325.5561 L577.057522,2333.81495 C592.681976,2335.39115 608.074534,2333.14973 622.143711,2327.72836 C622.288137,2327.67269 622.432517,2327.61667 622.576842,2327.5603 L616.711793,2320.86325 L615.846135,2319.8772 Z M445.947568,2327.27078 C446.801428,2326.71183 447.944734,2326.94846 448.504779,2327.79565 C449.296231,2329.0046 450.121948,2330.21575 450.956378,2331.39439 C451.535136,2332.22637 451.338524,2333.37901 450.50004,2333.95602 C450.035532,2334.28468 449.476545,2334.36495 448.963364,2334.22745 C448.560103,2334.11939 448.193441,2333.87475 447.936667,2333.50619 C447.083191,2332.29456 446.238429,2331.05042 445.424445,2329.82149 C444.865493,2328.96763 445.100037,2327.83213 445.947568,2327.27078 Z M864.971279,2295.33995 L880.491608,2299.49861 L879.360359,2303.72049 L868.613956,2300.841 L866.779286,2307.68808 L876.944255,2310.41177 L875.823318,2314.59517 L865.658349,2311.87147 L863.512464,2319.88002 L874.841003,2322.9155 L873.709942,2327.13667 L857.607479,2322.82203 L864.971279,2295.33995 Z M728.601995,2319.76506 C729.119527,2318.8684 730.270875,2318.56776 731.169666,2319.07735 C732.066506,2319.59422 732.369584,2320.73913 731.853375,2321.63615 C731.10636,2322.93935 730.32209,2324.25455 729.534256,2325.52483 C729.091718,2326.25012 728.235805,2326.55972 727.455742,2326.35071 C727.283057,2326.30443 727.11133,2326.23076 726.951893,2326.1377 C726.070534,2325.58952 725.797467,2324.43847 726.337256,2323.56195 C727.110899,2322.31552 727.872445,2321.03749 728.601995,2319.76506 Z M518.304135,2294.1812 L518.026535,2294.27579 L508.742462,2297.43142 C518.18321,2309.08211 530.332676,2318.66322 544.567085,2325.09633 C544.915285,2325.25604 545.265399,2325.41273 545.617289,2325.56691 L546.910967,2316.50485 L547.009676,2315.82071 C546.611626,2315.63412 546.21607,2315.44459 545.824517,2315.25195 C535.013851,2309.97136 525.620805,2302.62181 518.011408,2293.84737 L518.304135,2294.1812 Z M593.083779,2293.91277 L581.252377,2323.3631 C592.676511,2324.1095 603.913249,2322.55163 614.397295,2319.02149 C614.576961,2318.96187 614.756283,2318.90165 614.935271,2318.84079 L593.083779,2293.91277 Z M551.712845,2282.82746 L519.620821,2293.73662 C526.912646,2301.96928 535.816049,2308.88207 546.017999,2313.92408 C546.410286,2314.11701 546.804606,2314.30774 547.201136,2314.49561 L551.712845,2282.82746 Z M735.244072,2307.05917 C735.678871,2306.1252 736.790064,2305.71316 737.737277,2306.15151 C738.67769,2306.58875 739.088129,2307.7059 738.65333,2308.63987 C738.017289,2310.00966 737.352145,2311.37946 736.678771,2312.72435 C736.271065,2313.53072 735.358194,2313.91782 734.517159,2313.69246 C734.397957,2313.66052 734.276344,2313.61374 734.161803,2313.56176 C733.230747,2313.09225 732.856484,2311.96989 733.324394,2311.04479 C733.98161,2309.73106 734.624638,2308.39082 735.244072,2307.05917 Z M668.792542,2274.12907 C663.050641,2285.94191 654.88572,2296.10397 645.080007,2304.14616 C645.046172,2304.1741 645.012315,2304.202 644.978437,2304.22987 L645.224281,2304.95752 L648.205135,2313.6572 L648.313834,2313.57576 C660.96473,2303.90348 671.368713,2291.16943 678.253125,2276.09705 L678.512135,2275.5222 L669.421707,2274.21752 Z M348.90376,2309.0665 L349.232381,2310.1384 L341.770804,2312.40985 L341.442013,2311.33859 L348.90376,2309.0665 Z M432.43529,2301.63545 C433.372939,2301.22648 434.464936,2301.65955 434.871969,2302.60441 C435.45684,2303.93405 436.059614,2305.2755 436.675964,2306.5925 C437.107923,2307.52297 436.714172,2308.6255 435.78353,2309.05812 C435.368103,2309.24811 434.924289,2309.27668 434.518004,2309.16782 C434.006871,2309.03086 433.553681,2308.67765 433.312195,2308.16345 C432.683865,2306.81514 432.061902,2305.44045 431.465497,2304.07261 C431.056533,2303.13496 431.489777,2302.0423 432.43529,2301.63545 Z M632.924079,2268.99711 L644.524135,2302.9012 L644.628898,2302.81708 C653.87133,2295.14648 661.618003,2285.55408 667.168846,2274.43518 L667.416135,2273.9322 L632.924079,2268.99711 Z M740.745667,2293.82541 C741.098111,2292.85461 742.169791,2292.3535 743.147035,2292.70838 C744.12641,2293.05531 744.633041,2294.13557 744.279934,2295.10619 C743.765232,2296.52351 743.220477,2297.94699 742.667796,2299.34704 C742.315003,2300.23963 741.350289,2300.71259 740.435923,2300.46759 C740.369664,2300.44984 740.298555,2300.42368 740.234735,2300.39948 C739.263751,2300.01858 738.796902,2298.92767 739.17585,2297.96398 C739.717878,2296.60368 740.246468,2295.21138 740.745667,2293.82541 Z M427.396375,2288.04956 C428.370539,2287.72598 429.427833,2288.24876 429.751405,2289.22292 C430.213417,2290.60044 430.698194,2291.99814 431.204919,2293.3665 C431.558299,2294.33457 431.06181,2295.3989 430.093746,2295.75228 C429.720204,2295.88462 429.331077,2295.89376 428.975556,2295.79849 C428.410404,2295.64706 427.923089,2295.23405 427.707307,2294.64093 C427.190329,2293.23461 426.69112,2291.81191 426.218021,2290.39691 C425.894625,2289.42209 426.422868,2288.37331 427.396375,2288.04956 Z M344.355515,2292.39304 L344.606424,2293.47175 L337.096841,2295.19627 L336.847352,2294.11727 L344.355515,2292.39304 Z M342.513324,2283.94772 L342.723579,2285.02683 L335.213012,2286.47891 L335.002591,2285.40041 L342.513324,2283.94772 Z M423.569771,2274.08239 C424.565691,2273.84093 425.578147,2274.46521 425.819437,2275.46179 C426.159324,2276.88086 426.524147,2278.31226 426.903099,2279.7199 C427.171845,2280.71678 426.580668,2281.7374 425.591968,2282.00198 C425.25801,2282.089 424.927236,2282.08509 424.624229,2282.0039 C423.998453,2281.83622 423.47716,2281.35766 423.296538,2280.68798 C422.90779,2279.24311 422.52996,2277.77858 422.185548,2276.32371 C421.944258,2275.32713 422.566605,2274.32192 423.569771,2274.08239 Z M340.959719,2275.44359 L341.130993,2276.5196 L333.636068,2277.70073 L333.464793,2276.62472 L340.959719,2275.44359 Z M486.863445,2224.10591 C485.15992,2240.70491 487.739289,2257.06187 493.839368,2271.87815 C493.912662,2272.05559 493.98652,2272.23292 494.060895,2272.41012 L501.323246,2266.07754 L501.558135,2265.8722 L501.345627,2265.31166 C497.037105,2253.7154 495.087139,2241.1726 495.910064,2228.40669 L495.954135,2227.7552 L495.869762,2227.72208 Z M339.694206,2266.89333 L339.826505,2267.96397 L332.366634,2268.87318 L332.234334,2267.80254 L339.694206,2266.89333 Z M420.971945,2259.84627 C421.995616,2259.69543 422.945021,2260.40254 423.096794,2261.4201 C423.311172,2262.864 423.54859,2264.32751 423.807873,2265.76222 C423.989759,2266.77299 423.312769,2267.74461 422.293904,2267.92504 C422.018712,2267.97792 421.740568,2267.95998 421.483172,2267.89101 C420.803381,2267.70886 420.259159,2267.15276 420.125808,2266.40965 C419.862167,2264.93841 419.618801,2263.4443 419.400065,2261.96386 C419.248115,2260.94697 419.948628,2259.99579 420.971945,2259.84627 Z M497.24347,2228.27456 C496.401114,2240.75341 498.250236,2253.0252 502.410543,2264.38062 C502.477115,2264.57006 502.544886,2264.75927 502.613755,2264.94822 L529.716632,2241.29678 Z M751.991272,2249.85523 L752.137929,2249.86264 C753.173462,2249.94842 753.937673,2250.85603 753.852064,2251.8909 C753.720402,2253.38909 753.570168,2254.9036 753.395875,2256.40457 C753.276485,2257.43039 752.347527,2258.16829 751.314907,2258.04779 C751.225248,2258.03796 751.130739,2258.01974 751.04463,2257.99666 C750.157037,2257.75884 749.562609,2256.90382 749.66555,2255.96588 C749.834042,2254.51306 749.983801,2253.02682 750.111438,2251.57015 C750.197047,2250.53528 751.104834,2249.7704 752.137929,2249.86264 Z M419.638147,2245.43279 C420.668526,2245.36878 421.555703,2246.15916 421.619056,2247.18936 C421.710777,2248.64521 421.817016,2250.1262 421.948402,2251.59268 C422.040455,2252.62419 421.281705,2253.52552 420.250852,2253.61775 C420.025142,2253.643 419.804077,2253.61919 419.59914,2253.56428 C418.859385,2253.36607 418.286986,2252.72308 418.218336,2251.91891 C418.081652,2250.42196 417.970871,2248.90503 417.876734,2247.40532 C417.81933,2246.37671 418.602929,2245.48842 419.638147,2245.43279 Z M338.026477,2249.68547 L338.081754,2250.73653 L330.760106,2251.1139 L330.704829,2250.06285 L338.026477,2249.68547 Z M680.549135,2197.9572 L673.215216,2204.35728 L673.010507,2204.53775 C676.948785,2215.7895 678.686905,2227.88865 677.841054,2240.19044 C677.828943,2240.37035 677.816169,2240.55009 677.802756,2240.7297 L678.241306,2240.90484 L686.896135,2244.3762 L686.949511,2243.86075 C688.505208,2228.13808 686.22723,2212.63702 680.748233,2198.4661 L680.549135,2197.9572 Z M752.578768,2235.37379 C753.612886,2235.37423 754.453128,2236.20942 754.45961,2237.24681 C754.460899,2238.75098 754.441858,2240.27808 754.402325,2241.77841 C754.374392,2242.80658 753.509661,2243.62472 752.474033,2243.5955 C752.327504,2243.5917 752.177692,2243.56575 752.038706,2243.52851 C751.224649,2243.31038 750.625077,2242.55387 750.651297,2241.66711 C750.693426,2240.21004 750.708445,2238.72442 750.706681,2237.24849 C750.707479,2236.21305 751.542664,2235.37281 752.578768,2235.37379 Z M337.622433,2241.04594 L337.640617,2242.08226 L330.423294,2242.20311 L330.404523,2241.16663 L337.622433,2241.04594 Z M671.943135,2205.4682 L646.102789,2228.01776 L676.515135,2240.2182 L676.551985,2239.67903 C677.303065,2228.06557 675.712554,2216.64132 672.115699,2205.97075 L671.943135,2205.4682 Z M419.574419,2230.938 C420.609214,2230.9677 421.427534,2231.83178 421.400085,2232.86079 C421.354586,2234.33045 421.338905,2235.81589 421.336486,2237.28361 C421.335026,2238.31888 420.499836,2239.15913 419.464389,2239.15833 C419.295392,2239.15632 419.130746,2239.13277 418.978523,2239.09199 C418.177698,2238.87741 417.584929,2238.15109 417.582214,2237.28495 C417.581587,2235.78094 417.607246,2234.25561 417.647441,2232.75545 C417.677148,2231.72065 418.53927,2230.90961 419.574419,2230.938 Z M330.415359,2232.27152 L337.498857,2232.39862 L337.482184,2233.41553 L330.398686,2233.28842 L330.415359,2232.27152 Z M751.742856,2220.90129 C752.773672,2220.80906 753.681573,2221.56955 753.773799,2222.60037 C753.911316,2224.09678 754.022577,2225.61449 754.116227,2227.11331 C754.18024,2228.14366 753.39733,2229.03209 752.361488,2229.08754 C752.152066,2229.10228 751.953273,2229.07735 751.761565,2229.02599 C751.007954,2228.82406 750.428152,2228.15856 750.378878,2227.33764 C750.289593,2225.87541 750.176086,2224.39252 750.042933,2222.93271 C749.950707,2221.9019 750.712039,2220.99351 751.742856,2220.90129 Z M330.737778,2223.38415 L337.649324,2223.74931 L337.598902,2224.74204 L330.686233,2224.37658 L330.737778,2223.38415 Z M420.638305,2216.48101 L420.784277,2216.49224 C421.815148,2216.61937 422.552407,2217.54818 422.433498,2218.57486 C422.261452,2220.04097 422.11298,2221.51979 421.98534,2222.9765 C421.893104,2224.00962 420.987069,2224.76789 419.954609,2224.67583 C419.842638,2224.66713 419.732927,2224.65264 419.626943,2224.62424 C418.765824,2224.39351 418.164458,2223.5643 418.247055,2222.64929 C418.376105,2221.15817 418.528296,2219.63633 418.703255,2218.1355 C418.821986,2217.10948 419.757592,2216.37334 420.784277,2216.49224 Z M749.638579,2206.58551 C750.655896,2206.40541 751.627296,2207.08302 751.807405,2208.10034 C752.0728,2209.56491 752.320986,2211.06732 752.541479,2212.54108 C752.698253,2213.56629 751.991175,2214.51565 750.968392,2214.666 C750.710221,2214.70293 750.453658,2214.68369 750.210133,2214.61844 C749.516517,2214.43259 748.957829,2213.85141 748.842988,2213.09208 C748.628621,2211.64825 748.383024,2210.18898 748.131013,2208.75629 C747.943645,2207.73702 748.619493,2206.77222 749.638579,2206.58551 Z M421.03396,2203.67184 C421.242433,2202.65526 422.23287,2202.00445 423.249457,2202.21292 C424.27267,2202.42317 424.922638,2203.41409 424.714651,2204.43152 C424.414374,2205.87024 424.137537,2207.33016 423.884581,2208.77517 C423.702615,2209.79886 422.732694,2210.47647 421.709005,2210.2945 C421.654218,2210.28692 421.601205,2210.27272 421.548193,2210.25851 C420.613852,2210.00816 420.015104,2209.08849 420.181268,2208.12378 C420.442439,2206.64546 420.729929,2205.14578 421.03396,2203.67184 Z M332.311685,2205.69248 L338.730647,2206.48333 L338.617567,2207.4052 L332.198746,2206.61382 L332.311685,2205.69248 Z M746.293161,2192.50261 C747.28117,2192.23786 748.31011,2192.8242 748.581928,2193.81481 C748.972252,2195.2537 749.349587,2196.71735 749.700575,2198.17394 C749.940093,2199.17707 749.323694,2200.18384 748.32122,2200.42353 C748.005082,2200.49414 747.696503,2200.48911 747.400093,2200.40969 C746.761165,2200.23849 746.234433,2199.73024 746.071627,2199.04418 C745.724988,2197.62405 745.361012,2196.19222 744.974379,2194.78962 C744.704984,2193.7926 745.295483,2192.77183 746.293161,2192.50261 Z M527.617135,2166.7272 L527.532839,2166.80182 C518.914619,2174.30042 511.694881,2183.50911 506.459394,2194.09447 C506.368672,2194.27537 506.278645,2194.45706 506.189279,2194.63941 L506.285968,2194.65331 L538.762356,2199.30195 L527.688602,2166.93433 L527.617135,2166.7272 Z M333.560034,2196.91133 L339.627102,2197.8747 L339.489463,2198.74547 L333.422395,2197.78209 L333.560034,2196.91133 Z M523.924135,2155.9312 L523.821395,2156.01397 C511.825231,2165.5886 501.962924,2177.97894 495.380523,2192.52931 C495.299659,2192.70594 495.21951,2192.88305 495.140039,2193.06056 L495.260457,2193.07826 L504.821135,2194.4452 L505.085622,2193.89989 C510.365267,2183.09617 517.682453,2173.69294 526.413647,2166.02754 L527.071128,2165.4559 C527.099738,2165.43147 527.128351,2165.40705 527.156969,2165.38266 L524.006856,2156.17065 L523.924135,2155.9312 Z M335.111928,2188.19596 L340.719796,2189.28799 L340.563351,2190.09262 L334.954895,2189.00093 L335.111928,2188.19596 Z M626.444135,2153.8442 L621.440658,2188.9442 L655.760445,2177.2836 C655.481425,2176.93778 655.199503,2176.59449 654.914566,2176.25181 C647.178725,2166.94775 637.45202,2159.19005 626.174572,2153.71171 L626.444135,2153.8442 Z M741.724507,2178.74857 C742.686687,2178.3936 743.757629,2178.89186 744.112782,2179.85339 C744.632194,2181.25336 745.129658,2182.68268 745.609167,2184.10014 C745.93275,2185.07433 745.405804,2186.1235 744.430952,2186.44691 C744.074064,2186.56963 743.700005,2186.57506 743.357617,2186.48331 C742.779303,2186.32835 742.27605,2185.89063 742.075848,2185.2735 C741.607906,2183.89436 741.122457,2182.49644 740.620527,2181.13637 C740.265375,2180.17484 740.757069,2179.10214 741.724507,2178.74857 Z M429.352667,2175.60033 C429.731635,2174.63659 430.830515,2174.16402 431.788299,2174.54139 C432.752046,2174.92036 433.22621,2176.01328 432.847242,2176.97702 C432.310035,2178.34579 431.780753,2179.73799 431.283303,2181.11742 C430.951669,2182.03703 429.964772,2182.5396 429.03114,2182.28944 C428.984094,2182.27683 428.931084,2182.26263 428.87985,2182.2418 C427.903037,2181.88774 427.394604,2180.81404 427.748843,2179.83657 C428.261797,2178.42579 428.799956,2177.00046 429.352667,2175.60033 Z M336.96223,2179.5624 L341.943147,2180.71383 L341.778274,2181.42871 L336.797357,2180.27729 L336.96223,2179.5624 Z M591.57844,2144.52512 C579.12715,2143.69906 566.900275,2145.5966 555.61082,2149.79735 C555.495298,2149.84039 555.379843,2149.88368 555.264445,2149.92723 L555.621896,2150.33627 L579.647214,2177.74568 L592.851207,2144.8791 L592.951138,2144.62629 C592.493112,2144.58881 592.035508,2144.55532 591.57844,2144.52512 Z M628.023135,2142.7502 L628.014815,2142.81607 L626.64767,2152.4108 L626.635314,2152.50108 C638.284545,2158.14155 648.296556,2166.17388 656.217465,2175.80896 C656.501699,2176.1508 656.782224,2176.49589 657.059348,2176.84308 L657.5535,2176.67565 L666.553135,2173.6162 L665.840334,2172.66807 C656.237014,2160.14739 643.582321,2149.83286 628.616497,2143.01729 L628.023135,2142.7502 Z M283.146135,2147.49648 L288.07799,2148.81796 L288.006435,2159.47181 C287.996791,2160.68717 287.988316,2161.85377 287.955079,2162.99069 C288.558839,2161.98062 289.196843,2160.96485 289.823719,2159.96841 L295.689099,2150.85736 L299.55397,2151.89294 L299.970818,2162.48061 C300.02379,2163.79529 300.050484,2164.99436 300.053112,2166.1223 C300.624592,2165.06343 301.228429,2164.0281 301.817273,2163.03485 L307.249717,2153.95501 L312.073347,2155.2475 L300.277297,2173.4774 L296.18904,2172.38196 L295.69288,2162.23181 C295.633663,2160.91547 295.595475,2159.69547 295.596721,2158.4615 C294.913138,2159.63904 294.2326,2160.7081 293.57791,2161.71121 L287.922339,2170.1669 L283.832,2169.0709 L283.146135,2147.49648 Z M735.974698,2165.43494 C736.905147,2165.00299 738.012456,2165.40504 738.446163,2166.32893 C739.08169,2167.67915 739.703641,2169.05381 740.301136,2170.4149 C740.708161,2171.35974 740.277511,2172.44534 739.338568,2172.85395 C738.934139,2173.02651 738.50585,2173.05222 738.112678,2172.94687 C737.588448,2172.8064 737.127429,2172.43003 736.892971,2171.88962 C736.314664,2170.56177 735.705348,2169.21858 735.082457,2167.89985 C734.648749,2166.97595 735.049046,2165.8752 735.974698,2165.43494 Z M435.29775,2162.20355 C435.759051,2161.27666 436.887893,2160.90482 437.81479,2161.36612 C438.74235,2161.8276 439.119485,2162.95786 438.653998,2163.87654 C437.994811,2165.19759 437.351942,2166.5372 436.734265,2167.86227 C436.345939,2168.70225 435.410924,2169.11893 434.549998,2168.88824 C434.444037,2168.85985 434.339852,2168.82484 434.245837,2168.77835 C433.30522,2168.34177 432.893172,2167.23054 433.329758,2166.28992 C433.958082,2164.92512 434.623068,2163.55594 435.29775,2162.20355 Z M341.569006,2162.47423 L346.464866,2163.97182 L346.249009,2164.67435 L341.353564,2163.17687 L341.569006,2162.47423 Z M344.33448,2154.0007 L349.739226,2155.86125 L349.472566,2156.63739 L344.067356,2154.77671 L344.33448,2154.0007 Z M442.388831,2149.38125 C442.928615,2148.50474 444.081427,2148.22506 444.969395,2148.77501 C445.852519,2149.31656 446.125582,2150.4676 445.585798,2151.34411 C444.817669,2152.59909 444.056792,2153.87729 443.327037,2155.14255 C442.890644,2155.89785 442.014416,2156.23037 441.213189,2156.01568 C441.061677,2155.97508 440.908868,2155.91286 440.766669,2155.83221 C439.869838,2155.31535 439.558375,2154.17529 440.068623,2153.27669 C440.821586,2151.97509 441.597943,2150.66559 442.388831,2149.38125 Z M595.883978,2134.17685 C579.276749,2132.49272 562.920385,2135.12562 548.143789,2141.29235 C548.034591,2141.33824 547.925445,2141.38424 547.81636,2141.43037 L548.18653,2141.85397 L554.358135,2148.8942 L554.70394,2148.76153 C566.143823,2144.43325 578.554849,2142.44377 591.196654,2143.20964 L592.079005,2143.26755 C592.533996,2143.30071 592.991823,2143.33621 593.450386,2143.37566 L596.990871,2134.57986 L597.101525,2134.30275 C596.695679,2134.25738 596.289715,2134.21521 595.883978,2134.17685 Z M347.396757,2145.62762 L353.136753,2147.8311 L352.819835,2148.6545 L347.080338,2146.45115 L347.396757,2145.62762 Z M721.12537,2140.52281 C721.963182,2139.94564 723.10976,2140.14132 723.695181,2140.97437 C724.548635,2142.18597 725.395118,2143.42358 726.207338,2144.65898 C726.768669,2145.50649 726.538067,2146.65068 725.684229,2147.20962 C725.226703,2147.51226 724.684875,2147.58318 724.189918,2147.45055 C723.774311,2147.33919 723.391632,2147.07632 723.133588,2146.68651 C722.335652,2145.47585 721.508214,2144.27123 720.682703,2143.08803 C720.096631,2142.25481 720.29232,2141.10823 721.12537,2140.52281 Z M450.591818,2137.23111 C451.204994,2136.39666 452.37622,2136.22882 453.210673,2136.84199 C454.044016,2137.46195 454.219574,2138.62817 453.599129,2139.46067 C452.717574,2140.64113 451.848551,2141.8462 451.009055,2143.05209 C450.547477,2143.71467 449.72475,2143.98297 448.985218,2143.78481 C448.779683,2143.72974 448.583001,2143.64162 448.398267,2143.5142 C447.551892,2142.91908 447.339748,2141.75724 447.934207,2140.91069 C448.796435,2139.67546 449.68687,2138.44072 450.591818,2137.23111 Z M350.751966,2137.36951 L356.707916,2139.89583 L356.344973,2140.75039 L350.389022,2138.22407 L350.751966,2137.36951 Z M712.135104,2129.12112 C712.912538,2128.46931 714.064775,2128.56995 714.718148,2129.34156 C715.671052,2130.47089 716.617018,2131.62611 717.528892,2132.77912 C718.162385,2133.57315 718.027646,2134.72319 717.235351,2135.35021 C716.761015,2135.72254 716.157956,2135.82454 715.620793,2135.68061 C715.251898,2135.58176 714.91313,2135.37307 714.657792,2135.05494 C713.766603,2133.92827 712.841321,2132.79941 711.90975,2131.69661 C711.262201,2130.92656 711.358109,2129.76611 712.135104,2129.12112 Z M459.83951,2125.83552 C460.520224,2125.06326 461.70675,2124.99226 462.476576,2125.6794 C463.247061,2126.36671 463.320669,2127.54615 462.632697,2128.31646 C461.663415,2129.40033 460.690782,2130.52572 459.743882,2131.65801 C459.264705,2132.22969 458.50722,2132.44394 457.827648,2132.26185 C457.569675,2132.19273 457.328932,2132.06458 457.10827,2131.88523 C456.317518,2131.22078 456.214643,2130.04763 456.8791,2129.25688 C457.846268,2128.10174 458.841594,2126.94707 459.83951,2125.83552 Z M358.324846,2121.2308 L364.491829,2124.37143 L364.040192,2125.25679 L357.872647,2122.11601 L358.324846,2121.2308 Z M702.177862,2118.5228 C702.892866,2117.81079 704.043484,2117.8156 704.757217,2118.52417 C705.792662,2119.55346 706.831714,2120.6182 707.840931,2121.68875 C708.534894,2122.41961 708.502616,2123.56977 707.771755,2124.26373 C707.293978,2124.70821 706.640162,2124.85722 706.048087,2124.69857 C705.7321,2124.6139 705.432737,2124.44402 705.192062,2124.18639 C704.209207,2123.1436 703.190725,2122.10506 702.184651,2121.09744 C701.470919,2120.38887 701.469294,2119.23653 702.177862,2118.5228 Z M470.042962,2115.29333 C470.796131,2114.59191 471.972114,2114.62475 472.682058,2115.37244 C473.390237,2116.12672 473.357874,2117.30354 472.604705,2118.00496 C471.546909,2119.0058 470.478975,2120.03921 469.439799,2121.07327 C468.955367,2121.56444 468.263217,2121.72475 467.637757,2121.55715 C467.334244,2121.47583 467.04005,2121.31232 466.80105,2121.07187 C466.071541,2120.34716 466.06922,2119.16811 466.800688,2118.4397 C467.861852,2117.37625 468.955935,2116.32162 470.042962,2115.29333 Z M362.531653,2113.36913 L368.727394,2116.80019 L368.233956,2117.68934 L362.03764,2114.25813 L362.531653,2113.36913 Z M691.333795,2108.8314 C691.975743,2108.07178 693.113886,2107.96574 693.886282,2108.61111 C695.006987,2109.54162 696.125521,2110.50579 697.215703,2111.47607 C697.963148,2112.13531 698.0321,2113.28407 697.368011,2114.02405 C696.897464,2114.55558 696.18268,2114.74081 695.54355,2114.56956 C695.281507,2114.49935 695.028486,2114.3699 694.807085,2114.17357 C693.74436,2113.2312 692.653284,2112.29493 691.561545,2111.37903 C690.794467,2110.74193 690.690773,2109.59757 691.333795,2108.8314 Z M481.123866,2105.69748 C481.927804,2105.06124 483.101965,2105.1999 483.737545,2106.00366 C484.374437,2106.80777 484.243628,2107.97629 483.433123,2108.61077 C482.288142,2109.52162 481.137881,2110.45218 480.022215,2111.38496 C479.540437,2111.79079 478.910102,2111.91047 478.345345,2111.75914 C477.99073,2111.66412 477.657701,2111.46227 477.402971,2111.15471 C476.739339,2110.37159 476.843224,2109.19585 477.631637,2108.54138 C478.767475,2107.58584 479.945578,2106.62756 481.123866,2105.69748 Z M367.008895,2105.66087 L373.198856,2109.37419 L372.664948,2110.26257 L366.474988,2106.54925 L367.008895,2105.66087 Z M679.675354,2100.11945 C680.239885,2099.30586 681.359201,2099.10977 682.172787,2099.6743 C683.364016,2100.50309 684.55479,2101.35894 685.716809,2102.22068 C686.51726,2102.80887 686.678894,2103.93254 686.091769,2104.72648 C685.635709,2105.33811 684.872319,2105.57522 684.181306,2105.39006 C683.972101,2105.33401 683.766747,2105.23822 683.579624,2105.09974 C682.445907,2104.25918 681.283433,2103.4245 680.121138,2102.61705 C679.306918,2102.05235 679.105117,2100.93151 679.675354,2100.11945 Z M492.988875,2097.10765 C493.841725,2096.54332 494.998988,2096.78324 495.562663,2097.63592 C496.126993,2098.48877 495.888999,2099.63883 495.031357,2100.19486 C493.821118,2100.9932 492.602109,2101.82427 491.411039,2102.65581 C490.937628,2102.98502 490.375018,2103.06581 489.864401,2102.92899 C489.45198,2102.81848 489.082941,2102.57225 488.824503,2102.2013 C488.235271,2101.36283 488.43878,2100.21054 489.277252,2099.62131 C490.495632,2098.76902 491.746534,2097.91844 492.988875,2097.10765 Z M371.756411,2098.11157 L377.909429,2102.10311 L377.335325,2102.98572 L371.182901,2098.99434 L371.756411,2098.11157 Z M667.317705,2092.47107 C667.808061,2091.62024 668.894241,2091.33271 669.746758,2091.81678 C670.989555,2092.52654 672.230218,2093.26935 673.45037,2094.0134 C674.287573,2094.52701 674.553537,2095.62087 674.041437,2096.45242 C673.61595,2097.139 672.802261,2097.43899 672.060957,2097.24036 C671.904034,2097.19831 671.740658,2097.12763 671.589859,2097.04013 C670.405687,2096.31245 669.186767,2095.58891 667.97995,2094.89553 C667.121156,2094.40977 666.827349,2093.32191 667.317705,2092.47107 Z M877.458557,2079.97249 L882.149026,2088.11782 L880.758898,2088.914 L877.189157,2082.71588 L873.132268,2085.03947 L876.508135,2090.90179 L875.13706,2091.68756 L871.761377,2085.82455 L867.133137,2088.47626 L870.895876,2095.01068 L869.505747,2095.80686 L864.621405,2087.32572 L877.458557,2079.97249 Z M654.347847,2085.93137 C654.750578,2085.04867 655.795963,2084.67058 656.676386,2085.07935 C657.961575,2085.66971 659.251901,2086.28803 660.512428,2086.91832 C661.386203,2087.3519 661.737391,2088.40338 661.304687,2089.2714 C660.928995,2090.02838 660.071635,2090.39701 659.278262,2090.18443 C659.167227,2090.15468 659.058276,2090.11219 658.947066,2090.0558 C657.714229,2089.44623 656.454918,2088.83621 655.205906,2088.26219 C654.324863,2087.85326 653.938913,2086.81241 654.347847,2085.93137 Z M382.027227,2083.53702 L388.031256,2088.05609 L387.380695,2088.91705 L381.377887,2084.39831 L382.027227,2083.53702 Z M518.709944,2083.1714 C519.639871,2082.76626 520.723859,2083.18897 521.127257,2084.12539 C521.532396,2085.05532 521.109688,2086.13931 520.175006,2086.53621 C518.844253,2087.11238 517.514773,2087.70977 516.216025,2088.32236 C515.803484,2088.51113 515.364282,2088.53962 514.955129,2088.42999 C514.44856,2088.29426 514.005911,2087.94594 513.766581,2087.43633 C513.332633,2086.5126 513.728714,2085.42148 514.650873,2084.99338 C515.980819,2084.36827 517.349732,2083.7536 518.709944,2083.1714 Z M640.855034,2080.53759 C641.180319,2079.6416 642.171665,2079.17315 643.073768,2079.50007 C644.376788,2079.96719 645.698326,2080.46549 646.996603,2080.97722 C647.892151,2081.32861 648.331391,2082.33113 647.981645,2083.22057 C647.6544,2084.05048 646.758522,2084.48553 645.92012,2084.26088 C645.858968,2084.24449 645.79395,2084.22052 645.733824,2084.19785 C644.464485,2083.70043 643.173523,2083.21032 641.900468,2082.75123 C640.996727,2082.43042 640.528722,2081.43985 640.855034,2080.53759 Z M868.711608,2064.71821 L869.941518,2066.85355 L866.213833,2075.44497 C865.34946,2077.43496 864.496113,2079.09005 863.590637,2080.5656 L863.635827,2080.59924 C865.253745,2079.43265 866.796923,2078.48958 868.806178,2077.33949 L874.200904,2074.24826 L875.262442,2076.09197 L862.36716,2083.47734 L861.228537,2081.50011 L865.000718,2072.94214 C865.827213,2071.06304 866.718359,2069.20868 867.674391,2067.64422 L867.616709,2067.58792 C866.054978,2068.63072 864.531447,2069.56421 862.38886,2070.79069 L856.878743,2073.94677 L855.817019,2072.10376 L868.711608,2064.71821 Z M532.362778,2077.92411 C533.327067,2077.6077 534.364898,2078.12817 534.683044,2079.08599 C535.00119,2080.04382 534.488913,2081.07692 533.524625,2081.39334 C532.16375,2081.84587 530.795951,2082.32425 529.452266,2082.81601 C529.083257,2082.9526 528.700829,2082.96093 528.344809,2082.86553 C527.789134,2082.71664 527.31155,2082.30474 527.097655,2081.72803 C526.750848,2080.77638 527.23901,2079.72989 528.19084,2079.38243 C529.565565,2078.87821 530.970865,2078.3891 532.362778,2077.92411 Z M387.540225,2076.52711 L393.438606,2081.29696 L392.752275,2082.14318 L386.854059,2077.3727 L387.540225,2076.52711 Z M546.417748,2073.89391 C547.389439,2073.65865 548.375968,2074.26717 548.611875,2075.23904 C548.844777,2076.21698 548.244394,2077.19881 547.26628,2077.43235 C545.885015,2077.7575 544.482301,2078.11132 543.108258,2078.48659 C542.783282,2078.5716 542.460126,2078.56762 542.158263,2078.48674 C541.554538,2078.32497 541.047984,2077.85193 540.870152,2077.2054 C540.613898,2076.23497 541.183889,2075.23811 542.156042,2074.97544 C543.566282,2074.5961 544.997486,2074.23615 546.417748,2073.89391 Z M612.742675,2073.30339 C612.90818,2072.36923 613.799046,2071.74685 614.740929,2071.90789 C616.111538,2072.1512 617.487601,2072.41554 618.842338,2072.69374 C619.399902,2072.804 619.835386,2073.1751 620.053592,2073.65107 C620.208663,2073.97312 620.259562,2074.34555 620.183817,2074.72318 C620.063774,2075.31726 619.64637,2075.77948 619.115625,2075.98301 C618.817156,2076.09874 618.481848,2076.13284 618.148289,2076.06303 C616.825201,2075.79331 615.478352,2075.5368 614.144262,2075.30328 C614.095571,2075.29023 614.045248,2075.28327 613.996557,2075.27022 C613.138371,2075.04027 612.588587,2074.19495 612.742675,2073.30339 Z M393.295053,2069.71421 L399.071913,2074.72805 L398.349798,2075.5567 L392.572483,2070.54207 L393.295053,2069.71421 Z M560.745187,2071.1078 C561.733994,2070.96271 562.652931,2071.63948 562.804399,2072.62999 C562.951836,2073.6126 562.268051,2074.52965 561.279244,2074.67474 C559.88428,2074.88186 558.476105,2075.11277 557.083643,2075.36155 C556.812301,2075.40503 556.541876,2075.39407 556.293203,2075.32744 C555.642827,2075.15317 555.111311,2074.61438 554.980133,2073.90266 C554.806119,2072.91977 555.460803,2071.98125 556.443691,2071.80724 C557.871452,2071.55424 559.314925,2071.31912 560.745187,2071.1078 Z M600.076249,2069.94743 L600.227592,2069.95358 C601.625856,2070.07657 603.042635,2070.22439 604.442706,2070.3876 C605.406027,2070.50002 606.094408,2071.36664 605.984266,2072.32394 C605.87227,2073.28075 605.000093,2073.96764 604.042951,2073.85688 C602.675432,2073.69577 601.288932,2073.55606 599.923838,2073.43534 C599.820002,2073.42738 599.717822,2073.41325 599.618953,2073.38676 C598.815644,2073.17151 598.254485,2072.39859 598.330918,2071.54484 C598.416961,2070.58108 599.262171,2069.87371 600.227592,2069.95358 Z M575.268958,2069.58364 C576.260048,2069.52395 577.107865,2070.27966 577.168453,2071.26489 C577.230306,2072.25046 576.475223,2073.09845 575.490884,2073.15318 C574.085944,2073.23751 572.661583,2073.34374 571.26714,2073.46476 C571.05082,2073.48811 570.840669,2073.46568 570.644047,2073.413 C569.935951,2073.22326 569.389001,2072.60915 569.322456,2071.84594 C569.234252,2070.86008 569.961744,2069.99115 570.948231,2069.90312 C572.377042,2069.77775 573.828386,2069.67197 575.268958,2069.58364 Z M585.591127,2069.28245 C587.019388,2069.2829 588.463065,2069.3009 589.87959,2069.34516 C590.86032,2069.36653 591.633139,2070.18385 591.606307,2071.16245 C591.578223,2072.14071 590.762408,2072.9079 589.78398,2072.88044 C588.398739,2072.84457 586.989698,2072.82243 585.594399,2072.8241 C585.434176,2072.82141 585.278984,2072.79994 585.135077,2072.76138 C584.378004,2072.55852 583.818244,2071.87206 583.816304,2071.0534 C583.816432,2070.07436 584.61225,2069.28169 585.591127,2069.28245 Z M399.28379,2063.10603 L404.924233,2068.35634 L404.16879,2069.16546 L398.527553,2063.91561 L399.28379,2063.10603 Z M411.939332,2050.53656 L417.26202,2056.23573 L416.44162,2056.9991 L411.118932,2051.29993 L411.939332,2050.53656 Z M418.589925,2044.59009 L423.736669,2050.49991 L422.885096,2051.23807 L417.738523,2045.32762 L418.589925,2044.59009 Z M425.443072,2038.8781 L430.404588,2044.99193 L429.523808,2045.70266 L424.562761,2039.58964 L425.443072,2038.8781 Z M432.493151,2033.40997 L437.257499,2039.71757 L436.348976,2040.40062 L431.584801,2034.09238 L432.493151,2033.40997 Z M447.147034,2023.22855 L451.486426,2029.89813 L450.525425,2030.52021 L446.186206,2023.84997 L447.147034,2023.22855 Z M454.732204,2018.52605 L458.848271,2025.3628 L457.864124,2025.95348 L453.746761,2019.11638 L454.732204,2018.52605 Z M462.477812,2014.09129 L466.363422,2021.08512 L465.356656,2021.64273 L461.469094,2014.64839 L462.477812,2014.09129 Z M470.373964,2009.92805 L474.02252,2017.07125 L472.993614,2017.5942 L469.343929,2010.45 L470.373964,2009.92805 Z M486.57781,2002.44302 L489.732144,2009.85113 L488.664718,2010.30251 L485.511039,2002.89458 L486.57781,2002.44302 Z M494.86914,1999.1285 L497.766794,2006.65525 L496.68229,2007.06964 L493.784636,1999.54288 L494.86914,1999.1285 Z M420.445254,1953.52826 L427.860749,1966.40574 L425.880781,1967.54068 L417.301376,1963.76497 C415.417911,1962.93804 413.556746,1962.04729 411.989306,1961.0912 L411.932504,1961.148 C412.979517,1962.70791 413.917034,1964.23031 415.149493,1966.37006 L418.317405,1971.87226 L416.471833,1972.9296 L409.054952,1960.05174 L411.194048,1958.82728 L419.807973,1962.55729 C421.803011,1963.42228 423.462465,1964.27606 424.940985,1965.18159 L424.975826,1965.13747 C423.804511,1963.5205 422.857729,1961.98002 421.702357,1959.97379 L418.599682,1954.5856 L420.445254,1953.52826 Z M657.660448,1932.2072 L662.430869,1933.48543 L667.392919,1949.30712 C668.100056,1951.56861 668.68272,1953.69852 669.151866,1955.74551 C669.6761,1953.28527 670.286916,1950.87973 670.998023,1948.22584 L674.109234,1936.61464 L678.689342,1937.84188 L671.325925,1965.32253 L666.824881,1964.11647 L661.951931,1948.27292 C661.127006,1945.59741 660.492004,1943.299 660.012413,1941.24621 C659.482456,1943.57668 658.866687,1946.02589 658.050967,1949.0702 L654.877139,1960.91509 L650.297031,1959.68785 L657.660448,1932.2072 Z M441.556857,1941.33151 L444.686479,1956.73281 L442.630228,1957.91058 L436.830853,1952.27819 C435.407087,1950.90074 434.361971,1949.8156 433.406962,1948.62787 L433.362172,1948.65314 C433.831195,1950.09382 434.22111,1951.55431 434.616929,1953.5464 L436.325663,1961.5223 L434.268717,1962.69988 L422.958882,1951.98439 L425.037367,1950.7932 L430.612675,1956.29921 C431.993009,1957.65234 433.327857,1959.03056 434.316285,1960.12138 L434.361262,1960.09542 C433.870701,1958.66835 433.461116,1956.86117 433.020321,1954.89504 L431.296769,1947.20814 L433.353715,1946.03055 L438.985388,1951.5293 C440.297986,1952.81807 441.588537,1954.11956 442.598688,1955.35188 L442.644361,1955.3261 C442.142735,1953.7261 441.744369,1952.0412 441.290301,1950.15799 L439.546092,1942.48419 L441.556857,1941.33151 Z" id="Combined-Shape"></path>
        </g>
    </g>
</svg>