<?xml version="1.0" encoding="UTF-8"?>
<svg width="574px" height="144px" viewBox="0 0 574 144" version="1.1" xmlns="http://www.w3.org/2000/svg" xmlns:xlink="http://www.w3.org/1999/xlink">
    <title>5EA05BB0-B709-4911-A2A5-4C703D339421</title>
    <defs>
        <path d="M497.92196,96 L493.397632,358.774195 C493.61831,361.181045 493.578812,363.64886 493.232768,366.145869 C493.159781,366.686831 493.07048,367.221781 492.970015,367.752439 C492.922788,368.289966 492.862682,368.828351 492.787977,369.369313 C492.442792,371.86804 491.809953,374.253422 490.944415,376.513439 L490.944415,376.513439 L424,630.652 L428.523469,367.878663 C428.302791,365.470955 428.342289,363.004858 428.688333,360.506131 C428.762179,359.966028 428.85148,359.431077 428.951944,358.90042 C428.999171,358.362893 429.058419,357.824507 429.133124,357.283546 C429.478309,354.785678 430.111148,352.399436 430.977545,350.139419 L430.977545,350.139419 L497.92196,96 Z M462.520853,346.55789 C460.82494,346.319557 459.155556,346.346574 457.54586,346.597451 C457.495646,346.605171 457.444484,346.6071 457.393322,346.61482 C456.938553,346.689118 456.494205,346.794294 456.050804,346.904294 C455.953218,346.929381 455.852789,346.943855 455.756151,346.969908 C455.330752,347.083767 454.914827,347.226574 454.501744,347.372276 C454.394684,347.410873 454.283833,347.438855 454.175825,347.479382 C453.769375,347.632803 453.373346,347.813241 452.979212,347.99754 C452.874994,348.045785 452.766039,348.085347 452.662768,348.136487 C452.270529,348.330435 451.890607,348.54754 451.515422,348.770435 C451.418783,348.827365 451.318355,348.87561 451.222664,348.93447 C450.843689,349.168944 450.477978,349.426575 450.117004,349.689997 C450.035525,349.749821 449.949308,349.801926 449.868776,349.863681 C449.504012,350.140611 449.155355,350.438769 448.811436,350.743681 L448.811436,350.743681 L448.607737,350.917366 C448.261922,351.234822 447.934109,351.572541 447.614822,351.91798 L447.614822,351.91798 L447.448073,352.089734 C447.125945,352.447717 446.823712,352.824033 446.530954,353.209033 L446.530954,353.209033 L446.400208,353.371139 C446.108397,353.766753 445.836483,354.179735 445.57499,354.601402 C445.542777,354.654472 445.50488,354.704648 445.473614,354.757718 C445.214964,355.186139 444.979999,355.629999 444.758299,356.082543 C444.731771,356.136578 444.700505,356.187719 444.674925,356.241754 C444.457961,356.698158 444.262789,357.16807 444.084671,357.646667 L444.084671,357.646667 L444.016456,357.816491 C443.842127,358.295088 443.694327,358.787194 443.560738,359.286053 L443.560738,359.286053 L443.506734,359.474211 C443.379778,359.969212 443.279349,360.477721 443.195975,360.991054 C443.186501,361.048949 443.172289,361.105879 443.162815,361.163774 C443.149551,361.285353 443.143866,361.405002 443.132497,361.526581 C443.087967,361.984914 443.051965,362.441318 443.04249,362.893862 C443.039648,363.033774 443.048175,363.170792 443.049122,363.309739 C443.05007,363.74974 443.058597,364.18781 443.091757,364.621056 C443.104074,364.771582 443.126812,364.918249 443.142918,365.066845 C443.186501,365.484653 443.233872,365.901495 443.305878,366.310618 C443.334301,366.471758 443.375041,366.629039 443.407253,366.789215 C443.487786,367.180969 443.570213,367.571759 443.676326,367.954829 C443.72275,368.123689 443.784334,368.288689 443.835495,368.456584 C443.94824,368.821321 444.061933,369.187023 444.197416,369.543075 C444.264684,369.719655 444.346164,369.887549 444.419116,370.061234 C444.560285,370.399918 444.700505,370.738602 444.862517,371.066673 C444.950629,371.245181 445.052952,371.414041 445.146748,371.58869 C445.314445,371.901322 445.480246,372.215884 445.665944,372.517901 C445.773004,372.690621 445.893329,372.853691 446.006074,373.022551 C446.200299,373.312989 446.390733,373.605358 446.600117,373.884218 C446.723284,374.046323 446.859715,374.196849 446.986671,374.35413 C447.207424,374.625271 447.42344,374.899306 447.659352,375.155973 C447.791993,375.301675 447.937899,375.433868 448.075277,375.57378 C448.3254,375.828517 448.570787,376.085184 448.836069,376.324482 C448.970605,376.446061 449.117458,376.555096 449.255784,376.671851 C449.540015,376.913079 449.822351,377.156237 450.121741,377.378167 C450.245856,377.469833 450.379444,377.547991 450.504506,377.636763 C450.834214,377.867377 451.163922,378.098956 451.511632,378.307378 C451.599744,378.360448 451.694487,378.403869 451.784494,378.454044 C452.179575,378.682729 452.579394,378.904659 452.995319,379.100536 C453.00953,379.108255 453.025637,379.11308 453.039848,379.119834 C454.545326,379.825185 456.176813,380.32308 457.903991,380.566238 C460.783253,380.971502 463.593352,380.625098 466.146695,379.680448 L466.146695,379.680448 L466.232912,379.652466 C466.685787,379.481676 467.126346,379.285799 467.562167,379.078343 C467.624698,379.048431 467.690071,379.025273 467.751654,378.994395 C468.160947,378.793694 468.556028,378.567904 468.948267,378.334395 C469.029747,378.287114 469.115016,378.245623 469.195549,378.196413 C469.566944,377.967728 469.922233,377.715886 470.27468,377.459219 L470.27468,377.459219 L470.556068,377.263342 C470.889566,377.010535 471.206958,376.7365 471.521507,376.460535 C471.620041,376.372728 471.727101,376.29264 471.82374,376.202903 C472.124077,375.926938 472.407361,375.63264 472.686855,375.334482 C472.786336,375.230271 472.891501,375.132815 472.98814,375.025709 C473.25816,374.725622 473.508283,374.4072 473.757459,374.087814 C473.84936,373.970095 473.949789,373.858165 474.038848,373.737551 C474.279497,373.411411 474.50025,373.067902 474.719108,372.725358 C474.79964,372.597024 474.888699,372.475445 474.966389,372.345182 C475.178615,371.991059 475.369997,371.621497 475.558537,371.250971 C475.624858,371.119743 475.698758,370.993339 475.763184,370.860181 C475.946039,370.475181 476.106156,370.075707 476.262483,369.674304 C476.312697,369.54404 476.370491,369.419567 476.417863,369.288339 C476.569453,368.867637 476.697357,368.434391 476.818629,367.997285 C476.851789,367.876671 476.892529,367.758952 476.922847,367.637373 C477.039382,367.17711 477.131283,366.705267 477.211815,366.2286 C477.226027,366.140793 477.24687,366.053951 477.261082,365.965179 C477.268662,365.893776 477.271504,365.822372 477.279083,365.750969 C477.33214,365.249214 477.370985,364.748424 477.381407,364.252459 C477.383301,364.170442 477.377617,364.089389 477.377617,364.006406 C477.381407,363.505617 477.370985,363.007722 477.333087,362.515616 L477.333087,362.515616 L477.305612,362.283072 C477.262029,361.790002 477.203288,361.298861 477.118019,360.816405 C477.105702,360.742107 477.084859,360.669738 477.070647,360.596405 C476.979693,360.113949 476.875475,359.636317 476.746624,359.167369 C476.724833,359.091141 476.696409,359.017808 476.673671,358.94158 C476.540082,358.479386 476.394177,358.022983 476.222691,357.575263 C476.19332,357.497105 476.155423,357.421842 476.12321,357.343684 C475.948881,356.904649 475.765079,356.471403 475.556642,356.051666 C475.514955,355.967719 475.465688,355.888596 475.422106,355.804648 C475.212723,355.39649 474.993865,354.992192 474.753216,354.602367 C474.699212,354.51456 474.636681,354.432543 474.580782,354.346665 C474.339186,353.96842 474.090009,353.594998 473.81999,353.237981 C473.751774,353.147279 473.673137,353.063331 473.603027,352.974559 C473.333007,352.631051 473.05825,352.290436 472.763597,351.968155 C472.682118,351.878419 472.591164,351.798331 472.506842,351.711489 C472.211241,351.399822 471.909956,351.09105 471.59067,350.802541 C471.498769,350.719558 471.396445,350.646225 471.302649,350.564207 C470.978626,350.284383 470.652707,350.006488 470.30784,349.750786 C470.212149,349.680347 470.108878,349.620523 470.010345,349.551049 C469.655056,349.298242 469.296924,349.049295 468.922687,348.82254 L468.922687,348.82254 L468.658352,348.680698 C468.261375,348.452014 467.859662,348.227189 467.441842,348.030347 C467.387838,348.004294 467.329097,347.984996 467.275093,347.959908 C465.798986,347.28061 464.207291,346.795258 462.520853,346.55789 Z" id="path-1"></path>
        <filter x="-52.8%" y="-9.4%" width="238.0%" height="119.1%" filterUnits="objectBoundingBox" id="filter-2">
            <feOffset dx="12" dy="1" in="SourceAlpha" result="shadowOffsetOuter1"></feOffset>
            <feGaussianBlur stdDeviation="15" in="shadowOffsetOuter1" result="shadowBlurOuter1"></feGaussianBlur>
            <feColorMatrix values="0 0 0 0 0   0 0 0 0 0.129411765   0 0 0 0 0.337254902  0 0 0 0.620383523 0" type="matrix" in="shadowBlurOuter1"></feColorMatrix>
        </filter>
    </defs>
    <g id="Main" stroke="none" stroke-width="1" fill="none" fill-rule="evenodd" opacity="0.697265625">
        <g id="About-us-design" transform="translate(-176.000000, -2348.000000)">
            <g id="Screenshot-2020-09-01-at-23.16.35" transform="translate(0.000000, 2045.000000)">
                <g id="Fill-1" transform="translate(460.960980, 363.326000) rotate(-287.000000) translate(-460.960980, -363.326000) ">
                    <use fill="black" fill-opacity="1" filter="url(#filter-2)" xlink:href="#path-1"></use>
                    <use fill="#025FFF" fill-rule="evenodd" xlink:href="#path-1"></use>
                </g>
            </g>
        </g>
    </g>
</svg>