<?xml version="1.0" encoding="UTF-8"?>
<svg width="534px" height="87px" viewBox="0 0 534 87" version="1.1" xmlns="http://www.w3.org/2000/svg" xmlns:xlink="http://www.w3.org/1999/xlink">
    <title>88F2FF3B-7DA9-432A-8590-10AD6049F346</title>
    <g id="Main" stroke="none" stroke-width="1" fill="none" fill-rule="evenodd" opacity="0.697265625">
        <g id="UI" transform="translate(-320.000000, -2192.000000)" fill="#025FFF">
            <path d="M623.931261,1968.16407 L619.406934,2230.93827 C619.627612,2233.34512 619.588113,2235.81293 619.24207,2238.30994 C619.169083,2238.85091 619.079781,2239.38586 618.979317,2239.91651 C618.93209,2240.45404 618.871983,2240.99243 618.797279,2241.53339 C618.452094,2244.03211 617.819255,2246.4175 616.953717,2248.67751 L616.953717,2248.67751 L550.009302,2502.81607 L554.53277,2240.04274 C554.312092,2237.63503 554.351591,2235.16893 554.697635,2232.67021 C554.77148,2232.1301 554.860782,2231.59515 554.961246,2231.06449 C555.008473,2230.52697 555.067721,2229.98858 555.142425,2229.44762 C555.48761,2226.94975 556.120449,2224.56351 556.986846,2222.30349 L556.986846,2222.30349 L623.931261,1968.16407 Z M588.530155,2218.72196 C586.834242,2218.48363 585.164858,2218.51065 583.555162,2218.76153 C583.504947,2218.76925 583.453786,2218.77118 583.402624,2218.77889 C582.947854,2218.85319 582.503506,2218.95837 582.060106,2219.06837 C581.96252,2219.09346 581.862091,2219.10793 581.765453,2219.13398 C581.340053,2219.24784 580.924128,2219.39065 580.511046,2219.53635 C580.403985,2219.57495 580.293135,2219.60293 580.185127,2219.64346 C579.778677,2219.79688 579.382648,2219.97732 578.988514,2220.16161 C578.884296,2220.20986 578.775341,2220.24942 578.67207,2220.30056 C578.279831,2220.49451 577.899909,2220.71161 577.524723,2220.93451 C577.428085,2220.99144 577.327656,2221.03968 577.231965,2221.09854 C576.85299,2221.33302 576.48728,2221.59065 576.126306,2221.85407 C576.044826,2221.9139 575.95861,2221.966 575.878077,2222.02776 C575.513314,2222.30469 575.164657,2222.60284 574.820737,2222.90776 L574.820737,2222.90776 L574.617038,2223.08144 C574.271224,2223.3989 573.943411,2223.73662 573.624124,2224.08205 L573.624124,2224.08205 L573.457375,2224.25381 C573.135247,2224.61179 572.833014,2224.98811 572.540256,2225.37311 L572.540256,2225.37311 L572.40951,2225.53521 C572.117699,2225.93083 571.845784,2226.34381 571.584292,2226.76548 C571.552079,2226.81855 571.514181,2226.86872 571.482916,2226.92179 C571.224266,2227.35021 570.989301,2227.79407 570.767601,2228.24662 C570.741073,2228.30065 570.709807,2228.35179 570.684226,2228.40583 C570.467263,2228.86223 570.272091,2229.33214 570.093973,2229.81074 L570.093973,2229.81074 L570.025757,2229.98057 C569.851429,2230.45916 569.703629,2230.95127 569.57004,2231.45013 L569.57004,2231.45013 L569.516036,2231.63829 C569.38908,2232.13329 569.288651,2232.6418 569.205277,2233.15513 C569.195802,2233.21302 569.181591,2233.26995 569.172116,2233.32785 C569.158852,2233.44943 569.153168,2233.56908 569.141798,2233.69066 C569.097269,2234.14899 569.061266,2234.60539 569.051792,2235.05794 C569.04895,2235.19785 569.057477,2235.33487 569.058424,2235.47381 C569.059371,2235.91381 569.067898,2236.35188 569.101059,2236.78513 C569.113375,2236.93566 569.136114,2237.08232 569.15222,2237.23092 C569.195802,2237.64873 569.243174,2238.06557 569.315179,2238.47469 C569.343603,2238.63583 569.384342,2238.79311 569.416555,2238.95329 C569.497087,2239.34504 569.579514,2239.73583 569.685627,2240.1189 C569.732052,2240.28776 569.793635,2240.45276 569.844797,2240.62066 C569.957542,2240.9854 570.071234,2241.3511 570.206718,2241.70715 C570.273986,2241.88373 570.355466,2242.05162 570.428418,2242.22531 C570.569586,2242.56399 570.709807,2242.90268 570.871819,2243.23075 C570.959931,2243.40926 571.062254,2243.57812 571.15605,2243.75276 C571.323746,2244.0654 571.489548,2244.37996 571.675246,2244.68198 C571.782306,2244.8547 571.902631,2245.01777 572.015376,2245.18663 C572.2096,2245.47706 572.400035,2245.76943 572.609419,2246.04829 C572.732586,2246.2104 572.869017,2246.36092 572.995973,2246.5182 C573.216726,2246.78935 573.432742,2247.06338 573.668654,2247.32005 C573.801295,2247.46575 573.9472,2247.59794 574.084579,2247.73785 C574.334702,2247.99259 574.580088,2248.24926 574.845371,2248.48856 C574.979907,2248.61014 575.12676,2248.71917 575.265086,2248.83593 C575.549317,2249.07715 575.831653,2249.32031 576.131043,2249.54224 C576.255157,2249.63391 576.388746,2249.71207 576.513808,2249.80084 C576.843516,2250.03145 577.173224,2250.26303 577.520934,2250.47145 C577.609045,2250.52452 577.703789,2250.56794 577.793796,2250.61812 C578.188877,2250.8468 578.588695,2251.06873 579.00462,2251.26461 C579.018832,2251.27233 579.034938,2251.27715 579.04915,2251.28391 C580.554628,2251.98926 582.186115,2252.48715 583.913293,2252.73031 C586.792555,2253.13558 589.602654,2252.78917 592.155997,2251.84452 L592.155997,2251.84452 L592.242214,2251.81654 C592.695089,2251.64575 593.135647,2251.44987 593.571468,2251.24242 C593.633999,2251.21251 593.699373,2251.18935 593.760956,2251.15847 C594.170249,2250.95777 594.56533,2250.73198 594.957569,2250.49847 C595.039049,2250.45119 595.124318,2250.4097 595.20485,2250.36049 C595.576246,2250.1318 595.931535,2249.87996 596.283981,2249.62329 L596.283981,2249.62329 L596.56537,2249.42742 C596.898868,2249.17461 597.21626,2248.90057 597.530809,2248.62461 C597.629342,2248.5368 597.736403,2248.45671 597.833041,2248.36698 C598.133379,2248.09101 598.416663,2247.79671 598.696157,2247.49856 C598.795638,2247.39435 598.900803,2247.29689 598.997442,2247.18978 C599.267461,2246.8897 599.517585,2246.57127 599.766761,2246.25189 C599.858662,2246.13417 599.959091,2246.02224 600.04815,2245.90163 C600.288799,2245.57549 600.509552,2245.23198 600.72841,2244.88943 C600.808942,2244.7611 600.898001,2244.63952 600.975691,2244.50926 C601.187917,2244.15513 601.379299,2243.78557 601.567839,2243.41505 C601.63416,2243.28382 601.70806,2243.15741 601.772486,2243.02426 C601.955341,2242.63926 602.115458,2242.23978 602.271785,2241.83838 C602.321999,2241.70811 602.379793,2241.58364 602.427165,2241.45241 C602.578755,2241.03171 602.706659,2240.59847 602.827931,2240.16136 C602.861091,2240.04075 602.901831,2239.92303 602.932149,2239.80145 C603.048684,2239.34118 603.140585,2238.86934 603.221117,2238.39267 C603.235329,2238.30487 603.256172,2238.21803 603.270384,2238.12925 C603.277963,2238.05785 603.280806,2237.98645 603.288385,2237.91504 C603.341442,2237.41329 603.380287,2236.9125 603.390708,2236.41653 C603.392603,2236.33452 603.386919,2236.25346 603.386919,2236.17048 C603.390708,2235.66969 603.380287,2235.1718 603.342389,2234.67969 L603.342389,2234.67969 L603.314913,2234.44715 C603.271331,2233.95408 603.21259,2233.46294 603.127321,2232.98048 C603.115004,2232.90618 603.09416,2232.83381 603.079949,2232.76048 C602.988995,2232.27802 602.884777,2231.80039 602.755925,2231.33144 C602.734134,2231.25522 602.705711,2231.18188 602.682973,2231.10565 C602.549384,2230.64346 602.403479,2230.18706 602.231993,2229.73934 C602.202622,2229.66118 602.164725,2229.58592 602.132512,2229.50776 C601.958183,2229.06872 601.77438,2228.63548 601.565944,2228.21574 C601.524257,2228.13179 601.47499,2228.05267 601.431408,2227.96872 C601.222024,2227.56056 601.003166,2227.15627 600.762517,2226.76644 C600.708513,2226.67863 600.645983,2226.59662 600.590084,2226.51074 C600.348487,2226.13249 600.099311,2225.75907 599.829292,2225.40206 C599.761076,2225.31135 599.682439,2225.22741 599.612329,2225.13863 C599.342309,2224.79513 599.067552,2224.45451 598.772899,2224.13223 C598.691419,2224.04249 598.600466,2223.96241 598.516144,2223.87556 C598.220543,2223.5639 597.919258,2223.25512 597.599972,2222.96662 C597.50807,2222.88363 597.405747,2222.8103 597.311951,2222.72828 C596.987927,2222.44846 596.662009,2222.17056 596.317142,2221.91486 C596.221451,2221.84442 596.11818,2221.7846 596.019646,2221.71512 C595.664357,2221.46232 595.306226,2221.21337 594.931988,2220.98661 L594.931988,2220.98661 L594.667653,2220.84477 C594.270677,2220.61609 593.868964,2220.39126 593.451144,2220.19442 C593.39714,2220.16837 593.338399,2220.14907 593.284395,2220.12398 C591.808288,2219.44468 590.216593,2218.95933 588.530155,2218.72196 Z" id="Fill-1" transform="translate(586.970282, 2235.490075) rotate(-287.000000) translate(-586.970282, -2235.490075) "></path>
        </g>
    </g>
</svg>